<svg xmlns="http://www.w3.org/2000/svg" xmlns:xlink="http://www.w3.org/1999/xlink" width="500" zoomAndPan="magnify" viewBox="0 0 375 374.999991" height="500" preserveAspectRatio="xMidYMid meet" version="1.0"><defs><g/><clipPath id="2cb52e6ef1"><path d="M 74.191406 0 L 298 0 L 298 273.75 L 74.191406 273.75 Z M 74.191406 0 " clip-rule="nonzero"/></clipPath></defs><g clip-path="url(#2cb52e6ef1)"><path fill="#f06a72" d="M 291.222656 87.367188 C 291.644531 87.425781 292.128906 87.546875 292.609375 87.546875 L 292.730469 86.042969 C 292.128906 85.980469 291.523438 85.863281 290.921875 85.742188 C 290.800781 85.019531 290.742188 84.296875 290.742188 83.511719 C 291.644531 83.8125 292.730469 84.054688 293.933594 84.054688 C 295.015625 84.054688 296.160156 83.875 297.488281 83.511719 L 297.066406 82.066406 C 294.292969 82.910156 292.246094 82.550781 290.742188 81.886719 C 290.800781 79.660156 291.101562 77.308594 291.824219 74.660156 C 295.136719 62.976562 295.558594 55.933594 293.152344 51.835938 C 291.464844 48.945312 288.574219 47.804688 284.78125 46.960938 C 279.480469 45.753906 265.390625 50.390625 255.875 57.980469 C 249.070312 63.398438 245.515625 69.480469 245.515625 75.503906 C 245.515625 82.128906 247.503906 90.800781 249.371094 99.171875 C 251.660156 109.226562 254.007812 119.585938 252.503906 125.125 C 248.949219 125.304688 244.675781 126.207031 240.699219 127.050781 C 240.15625 127.171875 239.675781 127.292969 239.132812 127.414062 C 238.472656 127.050781 237.808594 126.628906 237.207031 126.269531 C 234.738281 124.824219 232.628906 123.558594 230.882812 124.160156 C 229.921875 124.460938 229.257812 125.304688 228.714844 126.628906 C 228.355469 127.652344 228.414062 128.496094 228.898438 129.097656 C 230.101562 130.542969 233.351562 130.121094 238.894531 128.980469 C 240.761719 129.941406 242.808594 130.84375 245.035156 131.085938 C 244.191406 131.929688 243.710938 133.074219 243.652344 134.457031 C 243.46875 137.589844 244.011719 140.539062 244.433594 142.949219 C 244.433594 143.007812 244.433594 143.070312 244.492188 143.128906 C 232.992188 138.191406 222.511719 150.355469 222.394531 150.476562 L 220.648438 152.523438 L 223.175781 151.679688 C 223.234375 151.679688 229.859375 149.511719 239.675781 150.898438 C 242.625 151.320312 244.433594 151.019531 245.515625 149.933594 C 246.660156 148.789062 246.601562 146.984375 246.300781 144.757812 C 247.683594 143.792969 253.765625 140.601562 265.027344 147.886719 C 262.378906 147.648438 258.585938 147.585938 256.296875 148.671875 C 253.042969 150.175781 247.984375 149.09375 247.925781 149.09375 L 247.683594 149.09375 C 247.261719 149.152344 246.660156 149.453125 246.421875 150.054688 C 246.121094 150.898438 246.539062 151.984375 247.804688 153.425781 C 246.539062 153.546875 243.832031 153.367188 241.542969 153.246094 C 232.628906 152.765625 225.703125 152.644531 224.441406 155.59375 C 223.777344 157.039062 224.679688 158.90625 227.089844 161.257812 C 227.511719 161.796875 231.726562 166.253906 242.625 165.289062 C 248.40625 164.75 249.371094 165.894531 249.429688 166.011719 C 249.492188 166.074219 249.492188 166.132812 249.429688 166.316406 C 249.128906 166.855469 248.046875 167.519531 246.78125 167.519531 C 246.421875 167.519531 246 167.519531 245.515625 167.519531 C 242.6875 167.457031 238.410156 167.339844 236.964844 170.109375 C 235.640625 172.699219 237.386719 176.914062 242.144531 182.996094 C 245.699219 187.570312 246.902344 191.367188 245.699219 194.375 C 243.832031 198.894531 236.964844 200.398438 235.21875 200.761719 C 235.097656 200.761719 234.917969 200.761719 234.796875 200.820312 C 234.4375 200.761719 233.835938 200.761719 232.992188 200.941406 C 216.730469 201.542969 200.230469 190.28125 181.625 175.949219 C 179.515625 174.324219 177.589844 172.636719 175.964844 170.953125 C 188.367188 164.449219 196.859375 159.328125 192.824219 131.449219 C 203.964844 126.570312 216.851562 117.417969 217.152344 110.730469 C 217.273438 108.144531 215.589844 106.214844 212.277344 104.890625 C 207.21875 102.902344 204.628906 100.554688 204.566406 97.84375 C 204.449219 92.847656 212.816406 86.34375 228.175781 79.539062 C 241.121094 73.816406 242.085938 66.53125 242.929688 60.148438 C 243.769531 53.765625 244.554688 47.742188 257.078125 43.347656 C 283.035156 34.195312 281.828125 14.5625 281.828125 14.382812 L 281.40625 9.203125 L 280.324219 14.320312 C 279.359375 18.898438 274.902344 21.304688 261.957031 26.0625 C 249.429688 30.699219 245.757812 35.636719 243.410156 43.167969 C 243.289062 43.648438 243.109375 44.070312 242.988281 44.550781 C 241.242188 50.332031 240.277344 53.464844 221.429688 60.449219 C 219.742188 61.050781 217.996094 61.652344 216.3125 62.253906 C 214.683594 62.859375 213 63.398438 211.433594 64.003906 C 211.914062 63.339844 212.335938 62.675781 212.699219 62.015625 C 213.300781 60.992188 214.023438 60.085938 215.167969 59.546875 C 217.214844 58.523438 219.203125 57.378906 221.488281 56.714844 C 222.152344 56.535156 222.816406 56.355469 223.539062 56.234375 C 226.125 55.8125 228.714844 55.269531 231.125 54.125 C 231.667969 53.886719 232.207031 53.523438 232.75 53.222656 C 232.992188 53.101562 233.171875 52.863281 233.414062 52.742188 C 235.582031 51.234375 236.964844 49.128906 237.808594 46.71875 C 238.109375 45.816406 238.289062 44.851562 238.472656 43.890625 C 238.894531 41.78125 239.316406 39.734375 239.734375 37.625 C 239.917969 36.664062 239.917969 35.699219 239.976562 34.734375 C 239.976562 34.554688 240.039062 34.375 239.976562 34.195312 C 239.855469 33.953125 239.734375 33.652344 239.554688 33.589844 C 239.375 33.53125 239.074219 33.652344 238.894531 33.832031 C 238.472656 34.3125 238.050781 34.796875 237.6875 35.335938 C 236.605469 37.023438 235.28125 38.46875 233.773438 39.792969 C 232.570312 40.816406 231.304688 41.839844 229.800781 42.5625 C 228.355469 43.226562 226.96875 44.070312 225.585938 44.792969 C 224.378906 45.394531 223.234375 46.054688 222.210938 46.898438 C 220.464844 48.34375 218.898438 49.910156 217.636719 51.777344 C 217.09375 52.621094 216.492188 53.464844 215.949219 54.367188 C 216.128906 53.703125 216.25 53.042969 216.429688 52.378906 C 216.792969 52.140625 216.914062 51.71875 217.035156 51.296875 C 217.453125 49.910156 217.9375 48.527344 218.296875 47.140625 C 218.597656 45.753906 219.261719 44.550781 220.164062 43.527344 C 220.828125 42.804688 221.671875 42.203125 222.511719 41.539062 C 224.140625 40.277344 225.945312 39.433594 227.933594 38.832031 C 228.476562 38.648438 229.015625 38.410156 229.621094 38.167969 C 229.980469 38.046875 230.28125 37.867188 230.644531 37.746094 C 230.824219 37.925781 230.945312 38.046875 231.125 38.226562 C 232.089844 39.070312 233.292969 38.890625 233.953125 37.804688 C 234.074219 37.625 234.195312 37.386719 234.257812 37.203125 C 234.375 36.902344 234.496094 36.664062 234.796875 36.480469 C 235.339844 36.121094 235.460938 35.757812 235.28125 35.457031 C 235.039062 35.035156 234.675781 35.035156 234.257812 35.15625 C 234.195312 35.15625 234.136719 35.15625 234.015625 35.15625 C 233.351562 34.554688 232.570312 33.890625 231.546875 34.375 C 230.402344 34.917969 230.402344 35.941406 230.460938 37.144531 C 229.5 37.503906 228.476562 37.988281 227.453125 38.289062 C 225.222656 39.011719 223.175781 39.914062 221.371094 41.480469 C 221.066406 41.722656 220.765625 41.960938 220.34375 42.140625 C 221.25 40.335938 221.789062 38.347656 223.296875 36.902344 C 224.5 35.757812 225.703125 34.613281 227.03125 33.710938 C 228.59375 32.628906 230.28125 32.027344 232.027344 31.421875 C 233.292969 31 234.558594 30.460938 235.882812 29.976562 C 237.265625 29.496094 238.59375 29.015625 239.855469 28.292969 C 240.15625 28.109375 240.398438 28.109375 240.640625 28.414062 C 240.820312 28.59375 240.941406 28.714844 241.121094 28.894531 C 241.84375 29.4375 242.6875 29.316406 243.167969 28.53125 C 243.46875 28.109375 243.648438 27.628906 243.953125 27.207031 C 244.070312 27.027344 244.253906 26.847656 244.371094 26.726562 C 244.734375 26.363281 244.792969 25.941406 244.613281 25.582031 C 244.371094 25.222656 244.070312 25.101562 243.46875 25.222656 C 243.230469 25.28125 242.925781 25.28125 242.625 25.222656 C 242.023438 25.101562 241.421875 25.160156 240.878906 25.460938 C 239.976562 25.882812 239.675781 26.605469 239.855469 27.628906 C 238.894531 28.171875 237.929688 28.472656 236.964844 28.832031 C 235.339844 29.375 233.714844 29.859375 232.089844 30.398438 C 230.945312 30.761719 229.800781 31.242188 228.65625 31.664062 C 227.210938 32.207031 225.945312 32.988281 224.863281 34.074219 C 224.441406 34.496094 224.078125 34.855469 223.65625 35.21875 C 223.597656 35.15625 223.535156 35.15625 223.535156 35.15625 C 223.535156 35.15625 223.535156 35.097656 223.535156 35.097656 C 224.199219 33.652344 224.863281 32.144531 225.585938 30.699219 C 225.945312 29.976562 226.367188 29.316406 226.847656 28.652344 C 227.691406 27.570312 228.535156 26.546875 229.4375 25.460938 C 229.738281 25.523438 229.980469 25.582031 230.222656 25.582031 C 231.066406 25.640625 231.667969 25.339844 231.90625 24.558594 C 232.089844 24.078125 232.390625 23.835938 232.871094 23.714844 C 233.535156 23.535156 234.195312 23.355469 234.859375 23.234375 C 237.027344 22.75 239.195312 22.269531 241.363281 21.847656 C 242.386719 21.667969 243.410156 21.425781 244.492188 21.367188 C 245.277344 21.304688 246 21.003906 246.660156 20.644531 C 247.566406 20.164062 248.527344 19.679688 249.371094 19.199219 C 249.550781 19.257812 249.613281 19.257812 249.671875 19.320312 C 251.175781 20.464844 253.042969 19.679688 253.40625 17.8125 C 253.527344 17.210938 253.464844 16.667969 253.949219 16.1875 C 254.25 15.945312 254.128906 15.464844 253.828125 15.164062 C 253.527344 14.863281 252.984375 14.742188 252.621094 14.984375 C 252.441406 15.105469 252.261719 15.34375 252.082031 15.523438 C 249.671875 15.523438 249.191406 16.066406 249.3125 18.71875 C 249.011719 18.835938 248.707031 19.019531 248.46875 19.136719 C 246.660156 20.222656 244.675781 20.824219 242.507812 21.066406 C 240.457031 21.304688 238.472656 21.847656 236.484375 22.210938 C 235.097656 22.449219 233.714844 22.691406 232.269531 22.933594 C 231.96875 22.511719 232.027344 22.148438 232.390625 21.789062 C 232.75 21.425781 233.113281 21.066406 233.472656 20.703125 C 234.375 19.800781 235.28125 18.957031 236.121094 18.054688 C 237.027344 17.152344 238.050781 16.367188 239.195312 15.707031 C 239.316406 15.765625 239.433594 15.828125 239.617188 15.886719 C 241.121094 16.550781 242.566406 15.707031 242.445312 14.019531 C 242.386719 13.238281 242.6875 12.816406 243.230469 12.394531 C 244.492188 11.371094 245.878906 10.585938 247.503906 10.105469 C 249.070312 9.683594 250.636719 9.203125 252.019531 8.359375 C 252.203125 8.238281 252.441406 8.300781 252.683594 8.359375 C 253.585938 8.660156 254.371094 8.359375 255.152344 8.058594 C 255.875 7.757812 256.117188 7.035156 256.117188 6.25 C 256.117188 5.769531 256.117188 5.347656 256.597656 4.988281 C 256.957031 4.746094 256.898438 4.144531 256.597656 3.84375 C 256.296875 3.542969 255.816406 3.542969 255.453125 3.84375 C 255.332031 3.964844 255.210938 4.144531 255.09375 4.265625 C 254.609375 4.203125 254.128906 4.144531 253.707031 4.144531 C 252.621094 4.203125 252.082031 4.746094 252.019531 5.890625 C 252.019531 6.433594 251.960938 7.035156 251.898438 7.695312 C 251.539062 7.757812 251.179688 7.816406 250.875 7.9375 C 249.25 8.417969 247.683594 8.960938 246.058594 9.503906 C 245.457031 9.683594 244.914062 10.046875 244.371094 10.347656 C 243.410156 10.949219 242.507812 11.609375 241.601562 12.214844 C 239.316406 11.730469 238.289062 12.636719 238.59375 14.921875 C 238.53125 14.984375 238.472656 15.105469 238.351562 15.164062 C 237.75 15.585938 237.148438 16.007812 236.425781 16.488281 C 236.484375 16.1875 236.484375 16.007812 236.542969 15.886719 C 237.207031 13.839844 237.808594 11.730469 238.59375 9.746094 C 239.253906 8.179688 240.21875 6.734375 241.0625 5.226562 C 241.179688 5.046875 241.484375 4.925781 241.664062 4.867188 C 242.085938 4.746094 242.566406 4.746094 242.988281 4.566406 C 243.890625 4.203125 244.3125 3.300781 244.070312 2.335938 C 243.953125 1.914062 243.832031 1.554688 244.070312 1.132812 C 244.3125 0.652344 243.769531 0.109375 243.347656 0.351562 C 242.808594 0.589844 242.324219 0.46875 241.785156 0.53125 C 240.277344 0.710938 239.375 2.941406 240.21875 4.203125 C 240.339844 4.386719 240.519531 4.566406 240.699219 4.804688 C 240.398438 5.289062 240.15625 5.828125 239.796875 6.3125 C 238.59375 7.996094 237.75 9.863281 237.027344 11.792969 C 236.363281 13.597656 235.519531 15.40625 235.039062 17.273438 C 234.738281 18.355469 234.074219 19.136719 233.351562 19.859375 C 232.929688 20.28125 232.449219 20.765625 232.027344 21.1875 C 231.785156 20.945312 231.667969 20.582031 231.425781 20.523438 C 231.183594 20.464844 230.945312 20.765625 230.523438 20.945312 C 228.714844 20.824219 227.753906 21.96875 228.234375 23.777344 C 228.355469 24.257812 228.714844 24.738281 228.957031 25.339844 C 228.292969 26.246094 227.511719 27.207031 226.667969 28.292969 C 226.425781 27.570312 226.425781 26.96875 226.488281 26.363281 C 226.789062 23.292969 227.210938 20.222656 227.453125 17.089844 C 227.691406 14.5625 228.476562 12.214844 229.199219 9.804688 C 229.378906 9.140625 229.679688 8.539062 229.921875 7.878906 C 230.160156 7.878906 230.28125 7.878906 230.460938 7.878906 C 231.546875 7.9375 232.207031 7.515625 232.507812 6.492188 C 232.570312 6.25 232.628906 6.011719 232.628906 5.710938 C 232.628906 5.046875 232.507812 4.386719 232.871094 3.722656 C 233.050781 3.421875 232.871094 3.058594 232.507812 2.820312 C 232.148438 2.578125 231.726562 2.578125 231.484375 2.878906 C 231.125 3.359375 230.644531 3.359375 230.160156 3.421875 C 229.378906 3.480469 228.957031 3.964844 228.714844 4.6875 C 228.414062 5.769531 228.59375 6.3125 229.4375 7.578125 C 229.015625 8.78125 228.59375 9.984375 228.175781 11.191406 C 227.089844 14.199219 226.609375 17.332031 226.367188 20.464844 C 226.246094 22.210938 225.945312 23.894531 225.703125 25.640625 C 225.644531 26.246094 225.523438 26.90625 225.585938 27.507812 C 225.585938 28.050781 225.523438 28.53125 225.34375 29.015625 C 224.980469 29.859375 224.5625 30.640625 224.5 31.605469 C 224.5 31.90625 224.257812 32.207031 224.140625 32.566406 C 224.078125 32.507812 224.019531 32.445312 224.019531 32.445312 C 224.257812 30.398438 223.839844 28.414062 223.597656 26.425781 C 223.175781 23.472656 222.632812 20.582031 222.210938 17.632812 C 222.152344 17.390625 222.152344 17.210938 222.152344 16.96875 C 223.777344 16.007812 224.199219 14.082031 222.394531 12.816406 C 222.394531 12.636719 222.453125 12.453125 222.453125 12.273438 C 222.453125 11.792969 222.152344 11.429688 221.671875 11.429688 C 221.25 11.371094 220.828125 11.609375 220.765625 12.09375 C 220.707031 12.515625 220.585938 12.816406 220.285156 13.117188 C 220.164062 13.238281 220.042969 13.476562 220.042969 13.660156 C 220.164062 14.441406 220.226562 15.285156 220.464844 16.066406 C 220.648438 16.609375 221.1875 16.851562 221.789062 16.96875 C 221.851562 17.210938 221.910156 17.511719 221.972656 17.753906 C 222.453125 21.304688 222.875 24.859375 223.417969 28.414062 C 223.71875 30.398438 223.535156 32.328125 223.175781 34.253906 C 222.753906 36.664062 221.429688 38.710938 220.464844 40.9375 C 220.40625 39.011719 220.464844 37.023438 220.34375 35.097656 C 220.226562 33.167969 219.984375 31.242188 219.441406 29.375 C 219.621094 29.253906 219.804688 29.136719 219.984375 29.015625 C 220.828125 28.414062 221.007812 27.148438 220.285156 26.363281 C 220.042969 26.0625 219.804688 25.824219 219.5625 25.523438 C 219.382812 25.339844 219.261719 25.101562 219.203125 24.917969 C 219.082031 24.558594 218.898438 24.257812 218.539062 24.257812 C 218.175781 24.257812 217.996094 24.5 217.816406 24.800781 C 217.695312 25.039062 217.453125 25.222656 217.273438 25.402344 C 216.613281 25.761719 216.070312 26.183594 216.007812 27.027344 C 216.007812 27.871094 216.550781 28.351562 217.214844 28.773438 C 217.335938 28.832031 217.515625 28.953125 217.695312 29.015625 C 218.78125 29.195312 219.082031 30.039062 219.261719 30.941406 C 219.503906 32.144531 219.621094 33.289062 219.804688 34.496094 C 220.164062 36.664062 220.042969 38.832031 219.925781 41 C 219.863281 41.960938 219.683594 42.863281 219.203125 43.707031 C 218.839844 44.429688 218.597656 45.214844 218.359375 45.996094 C 217.996094 47.199219 217.574219 48.40625 217.214844 49.667969 C 217.453125 48.042969 217.574219 46.359375 217.214844 44.730469 C 216.613281 41.660156 215.589844 38.832031 213.117188 36.664062 C 211.492188 35.21875 210.046875 33.652344 208.542969 32.144531 C 207.699219 31.304688 207.097656 30.339844 206.617188 29.316406 C 206.132812 28.171875 205.53125 27.085938 204.6875 26.183594 C 204.628906 26.0625 204.507812 26.003906 204.449219 25.882812 C 204.027344 25.402344 203.84375 25.402344 203.304688 25.824219 C 203.304688 25.882812 203.242188 25.941406 203.304688 25.941406 C 203.84375 27.871094 203.304688 29.796875 203.484375 31.722656 C 203.605469 32.566406 203.542969 33.472656 203.542969 34.3125 C 203.605469 35.941406 203.964844 37.445312 204.6875 38.890625 C 205.171875 39.914062 205.53125 41 206.074219 41.960938 C 206.796875 43.46875 207.519531 45.03125 208.421875 46.417969 C 209.445312 48.042969 210.289062 49.667969 210.769531 51.597656 C 211.011719 52.742188 211.371094 53.824219 211.613281 54.96875 C 211.914062 56.234375 211.855469 57.5 211.671875 58.824219 C 211.613281 59.484375 211.492188 60.148438 211.433594 60.808594 C 211.253906 62.136719 210.832031 63.460938 210.289062 64.726562 C 210.230469 64.785156 210.230469 64.90625 210.230469 64.964844 C 198.367188 69.480469 188.1875 75.746094 186.863281 94.113281 C 186.082031 92.367188 185.539062 90.558594 185.296875 88.691406 C 185.175781 87.726562 185.058594 86.765625 184.875 85.800781 C 184.636719 83.933594 184.574219 82.066406 184.9375 80.261719 C 185.296875 78.636719 185.78125 77.007812 186.199219 75.382812 C 186.863281 72.671875 188.128906 70.265625 189.574219 67.917969 C 190.839844 65.867188 191.921875 63.640625 193.003906 61.414062 C 193.726562 59.96875 194.269531 58.402344 194.992188 56.957031 C 196.015625 54.847656 196.558594 52.621094 196.617188 50.273438 C 196.617188 49.007812 196.558594 47.742188 196.738281 46.476562 C 197.039062 43.648438 196.257812 40.816406 197.039062 38.046875 C 197.039062 37.988281 197.039062 37.925781 196.980469 37.804688 C 196.136719 37.203125 195.957031 37.203125 195.292969 37.925781 C 195.171875 38.046875 195.054688 38.226562 194.933594 38.347656 C 193.726562 39.671875 192.886719 41.238281 192.164062 42.863281 C 191.441406 44.429688 190.535156 45.816406 189.394531 47.019531 C 187.164062 49.25 185.058594 51.535156 182.707031 53.585938 C 179.214844 56.714844 177.648438 60.871094 176.808594 65.265625 C 176.324219 67.613281 176.503906 70.023438 176.808594 72.371094 C 176.265625 70.625 175.722656 68.878906 175.179688 67.132812 C 174.820312 65.988281 174.519531 64.84375 173.917969 63.761719 C 173.253906 62.496094 172.953125 61.230469 172.890625 59.847656 C 172.710938 56.714844 172.53125 53.585938 173.074219 50.453125 C 173.3125 48.765625 173.554688 47.019531 173.855469 45.332031 C 174.097656 44.007812 174.519531 42.746094 176.144531 42.503906 C 176.386719 42.445312 176.566406 42.324219 176.808594 42.203125 C 177.769531 41.601562 178.554688 40.878906 178.554688 39.671875 C 178.554688 38.46875 177.710938 37.867188 176.746094 37.324219 C 176.445312 37.144531 176.144531 36.84375 175.964844 36.480469 C 175.722656 36.058594 175.480469 35.699219 174.941406 35.757812 C 174.335938 35.820312 174.097656 36.179688 173.976562 36.722656 C 173.855469 37.023438 173.675781 37.324219 173.433594 37.625 C 173.074219 38.046875 172.710938 38.410156 172.351562 38.832031 C 171.386719 39.972656 171.628906 41.78125 172.832031 42.683594 C 173.074219 42.863281 173.3125 42.984375 173.554688 43.167969 C 172.710938 45.875 172.410156 48.644531 172.230469 51.476562 C 172.050781 54.308594 172.109375 57.136719 172.050781 59.96875 C 170.726562 56.777344 168.796875 53.824219 168.136719 50.332031 C 167.652344 47.5 167.351562 44.730469 167.773438 41.839844 C 168.496094 36.722656 169.160156 31.542969 169.882812 26.363281 C 169.941406 25.941406 170.0625 25.582031 170.121094 25.222656 C 170.964844 24.980469 171.808594 24.679688 172.050781 23.894531 C 172.351562 22.75 172.472656 21.546875 172.652344 20.402344 C 172.652344 20.164062 172.472656 19.800781 172.289062 19.621094 C 171.808594 19.199219 171.628906 18.71875 171.566406 18.113281 C 171.507812 17.511719 170.90625 17.152344 170.304688 17.210938 C 169.640625 17.273438 169.21875 17.753906 169.21875 18.476562 C 169.21875 18.777344 169.28125 19.019531 169.339844 19.257812 C 166.691406 21.003906 167.351562 23.894531 169.699219 25.222656 C 169.640625 25.523438 169.640625 25.824219 169.582031 26.183594 C 168.917969 30.398438 168.136719 34.675781 167.53125 38.890625 C 167.113281 41.78125 166.507812 44.671875 166.871094 47.621094 C 166.871094 47.683594 166.808594 47.742188 166.691406 47.804688 C 166.507812 47.320312 166.207031 46.898438 166.148438 46.417969 C 166.027344 45.03125 165.425781 43.890625 164.945312 42.683594 C 164.640625 41.960938 164.523438 41.300781 164.582031 40.515625 C 164.640625 39.613281 164.523438 38.710938 164.402344 37.804688 C 164.101562 35.335938 163.679688 32.808594 163.4375 30.339844 C 163.078125 25.761719 162.355469 21.246094 160.789062 16.910156 C 160.1875 15.164062 159.585938 13.417969 158.980469 11.671875 C 160.246094 9.804688 160.425781 9.023438 160.003906 7.515625 C 159.703125 6.433594 159.042969 5.769531 157.957031 5.648438 C 157.234375 5.589844 156.574219 5.589844 156.03125 4.867188 C 155.667969 4.386719 155.066406 4.445312 154.585938 4.804688 C 154.105469 5.109375 153.863281 5.648438 154.105469 6.070312 C 154.585938 7.035156 154.464844 7.996094 154.464844 8.960938 C 154.464844 9.324219 154.585938 9.683594 154.644531 10.046875 C 155.066406 11.550781 156.03125 12.214844 157.597656 12.09375 C 157.835938 12.09375 158.078125 12.09375 158.378906 12.03125 C 158.742188 12.996094 159.101562 13.898438 159.402344 14.863281 C 160.488281 18.355469 161.632812 21.789062 161.933594 25.402344 C 162.355469 29.859375 162.894531 34.3125 163.316406 38.832031 C 163.4375 39.671875 163.378906 40.578125 163.078125 41.601562 C 161.871094 40.035156 160.789062 38.648438 159.765625 37.386719 C 160.1875 36.542969 160.667969 35.878906 160.847656 35.15625 C 161.570312 32.628906 160.125 30.941406 157.535156 31.121094 C 156.996094 30.820312 156.574219 30.460938 156.273438 30.519531 C 155.910156 30.582031 155.730469 31.121094 155.367188 31.484375 C 154.707031 30.820312 154.105469 30.160156 153.441406 29.554688 C 152.359375 28.472656 151.394531 27.449219 150.972656 25.824219 C 150.191406 23.113281 149.046875 20.523438 148.082031 17.933594 C 147 15.164062 145.792969 12.453125 144.046875 10.046875 C 143.566406 9.382812 143.144531 8.601562 142.78125 7.878906 C 143.082031 7.515625 143.324219 7.273438 143.503906 7.035156 C 144.710938 5.226562 143.386719 2.035156 141.21875 1.734375 C 140.433594 1.613281 139.710938 1.734375 138.929688 1.433594 C 138.265625 1.132812 137.542969 1.914062 137.84375 2.578125 C 138.207031 3.242188 137.964844 3.78125 137.785156 4.324219 C 137.421875 5.769531 138.027344 7.035156 139.410156 7.578125 C 140.011719 7.816406 140.675781 7.816406 141.335938 7.996094 C 141.640625 8.058594 142.121094 8.238281 142.242188 8.480469 C 143.445312 10.648438 144.832031 12.695312 145.792969 14.984375 C 147 17.875 147.839844 20.945312 148.804688 23.894531 C 148.863281 24.136719 148.863281 24.378906 148.925781 24.800781 C 147.902344 24.078125 147 23.472656 146.15625 22.8125 C 146.035156 22.691406 145.914062 22.570312 145.792969 22.511719 C 146.214844 19.257812 144.710938 17.875 141.398438 18.597656 C 140.132812 17.691406 138.808594 16.730469 137.421875 15.886719 C 136.640625 15.40625 135.859375 14.921875 135.015625 14.621094 C 132.726562 13.839844 130.378906 13.117188 128.089844 12.394531 C 127.609375 12.214844 127.066406 12.152344 126.582031 12.03125 C 126.523438 11.070312 126.464844 10.285156 126.402344 9.441406 C 126.34375 7.878906 125.5 7.035156 123.933594 6.972656 C 123.273438 6.972656 122.609375 7.09375 121.945312 7.15625 C 121.765625 6.972656 121.585938 6.734375 121.40625 6.550781 C 120.863281 6.070312 120.199219 6.070312 119.71875 6.550781 C 119.296875 6.972656 119.175781 7.816406 119.71875 8.238281 C 120.382812 8.71875 120.441406 9.324219 120.441406 10.046875 C 120.441406 11.128906 120.742188 12.152344 121.828125 12.636719 C 122.96875 13.117188 124.113281 13.539062 125.441406 13.054688 C 125.742188 12.9375 126.101562 12.9375 126.34375 13.054688 C 128.390625 14.261719 130.617188 14.984375 132.90625 15.585938 C 135.195312 16.246094 137.242188 17.390625 139.109375 18.898438 C 139.890625 19.5 140.3125 20.101562 140.253906 21.246094 C 140.132812 23.65625 142.242188 24.917969 144.410156 23.957031 C 144.589844 23.894531 144.769531 23.777344 144.949219 23.714844 C 146.578125 24.617188 148.082031 25.761719 149.40625 27.085938 C 150.671875 28.414062 151.996094 29.617188 153.261719 30.941406 C 153.804688 31.484375 154.285156 32.027344 154.828125 32.566406 C 155.367188 33.109375 155.429688 33.589844 155.007812 34.195312 C 152.960938 33.832031 150.914062 33.53125 148.925781 33.167969 C 145.972656 32.628906 143.082031 31.84375 140.195312 31.542969 C 137.0625 31.242188 134.230469 30.398438 131.582031 28.773438 C 131.160156 28.53125 130.738281 28.351562 130.316406 28.109375 C 130.496094 24.378906 129.777344 23.535156 126.28125 23.535156 C 126.042969 23.292969 125.800781 22.992188 125.5 22.75 C 124.957031 22.390625 124.234375 22.511719 123.8125 22.992188 C 123.390625 23.414062 123.210938 24.078125 123.632812 24.4375 C 124.355469 25.101562 124.234375 25.945312 124.414062 26.785156 C 124.898438 29.496094 127.667969 30.640625 129.777344 28.953125 C 129.835938 28.894531 129.957031 28.894531 130.195312 28.832031 C 131.460938 29.496094 132.785156 30.160156 134.109375 30.882812 C 135.074219 31.421875 136.097656 31.785156 137.242188 31.90625 C 138.75 32.085938 140.253906 32.328125 141.757812 32.628906 C 144.890625 33.289062 148.082031 33.953125 151.214844 34.675781 C 152.175781 34.855469 153.140625 35.15625 154.105469 35.398438 C 154.765625 35.578125 155.25 35.941406 155.488281 36.664062 C 155.851562 37.804688 156.753906 38.226562 157.957031 38.109375 C 158.320312 38.046875 158.679688 37.988281 159.101562 37.925781 C 160.367188 39.492188 161.632812 41 162.835938 42.5625 C 163.5 43.46875 164.101562 44.492188 164.640625 45.515625 C 165.667969 47.621094 166.628906 49.789062 167.59375 51.898438 C 167.59375 51.898438 167.59375 51.957031 167.59375 52.019531 C 167.59375 52.019531 167.53125 52.078125 167.414062 52.140625 C 166.871094 51.597656 166.269531 51.054688 165.667969 50.453125 C 164.101562 48.886719 162.292969 47.683594 160.1875 46.960938 C 158.5 46.359375 156.875 45.753906 155.1875 45.152344 C 152.839844 44.371094 150.492188 43.648438 148.140625 42.863281 C 146.695312 42.382812 145.25 41.902344 143.925781 41.117188 C 144.226562 39.613281 143.746094 38.589844 142.480469 37.988281 C 141.699219 37.566406 140.855469 37.503906 139.953125 37.6875 C 139.589844 37.746094 139.167969 37.746094 138.75 37.625 C 137.964844 37.445312 137.421875 37.566406 137.121094 38.109375 C 136.820312 38.648438 136.941406 39.25 137.484375 39.792969 C 137.722656 40.035156 137.964844 40.214844 138.144531 40.515625 C 138.566406 41.117188 138.867188 41.78125 139.289062 42.445312 C 140.011719 43.585938 141.21875 43.769531 142.300781 42.984375 C 142.542969 42.804688 142.78125 42.5625 143.023438 42.324219 C 143.386719 41.960938 143.6875 41.902344 144.109375 42.140625 C 145.914062 43.226562 147.902344 43.890625 149.890625 44.613281 C 151.753906 45.273438 153.5625 46.054688 155.429688 46.71875 C 157.957031 47.621094 160.425781 48.527344 162.714844 50.089844 C 164.703125 51.476562 166.449219 53.101562 168.136719 54.726562 C 170.304688 56.777344 171.085938 59.667969 172.410156 62.316406 C 171.867188 62.074219 171.386719 61.773438 170.964844 61.414062 C 168.375 59.183594 165.363281 57.859375 162.113281 56.835938 C 160.609375 56.355469 159.222656 55.691406 157.777344 55.148438 C 157.835938 53.464844 157.835938 51.957031 156.210938 51.175781 C 154.707031 50.453125 153.621094 51.417969 152.597656 52.257812 C 152.417969 52.257812 152.359375 52.257812 152.296875 52.199219 C 151.695312 51.957031 151.152344 52.019531 150.792969 52.621094 C 150.492188 53.101562 150.671875 53.644531 151.453125 54.125 C 151.875 54.367188 152.054688 54.726562 152.238281 55.148438 C 152.359375 55.449219 152.476562 55.75 152.660156 56.054688 C 153.621094 57.617188 155.429688 57.859375 156.8125 56.65625 C 157.054688 56.472656 157.234375 56.234375 157.476562 55.992188 C 157.957031 56.171875 158.441406 56.414062 158.921875 56.59375 C 159.703125 56.894531 160.488281 57.316406 161.332031 57.558594 C 164.160156 58.460938 166.808594 59.605469 169.160156 61.472656 C 170.304688 62.375 171.566406 63.28125 172.53125 64.363281 C 173.855469 65.808594 174.757812 67.554688 175.242188 69.542969 C 175.722656 71.589844 176.386719 73.578125 177.046875 75.625 C 177.226562 76.167969 177.410156 76.769531 177.890625 77.191406 C 178.132812 78.152344 178.371094 79.117188 178.554688 80.082031 C 177.710938 78.753906 176.867188 77.550781 176.085938 76.285156 C 174.277344 73.578125 171.988281 71.289062 169.519531 69.242188 C 168.015625 68.035156 166.328125 67.074219 164.582031 66.230469 C 162.535156 65.144531 160.546875 63.941406 158.5 62.976562 C 156.332031 62.015625 154.527344 60.507812 152.777344 59.003906 C 150.609375 57.136719 148.683594 55.03125 147.117188 52.558594 C 146.636719 51.777344 146.035156 51.054688 145.371094 50.390625 C 145.191406 50.152344 144.710938 49.972656 144.410156 50.03125 C 144.167969 50.089844 143.925781 50.574219 143.804688 50.875 C 143.6875 51.113281 143.746094 51.417969 143.746094 51.65625 C 143.867188 53.042969 143.867188 54.488281 144.109375 55.871094 C 144.648438 58.882812 145.25 61.894531 145.914062 64.964844 C 146.214844 66.351562 146.457031 67.734375 146.9375 69.058594 C 148.203125 72.613281 150.191406 75.625 153.320312 77.792969 C 153.683594 78.03125 153.921875 78.335938 154.285156 78.515625 C 155.066406 78.996094 155.789062 79.476562 156.632812 79.839844 C 160.125 81.464844 163.859375 82.25 167.652344 82.851562 C 168.617188 83.03125 169.640625 83.273438 170.605469 83.511719 C 173.855469 84.417969 176.746094 86.164062 179.757812 87.609375 C 181.382812 88.390625 182.40625 89.65625 183.308594 91.160156 C 184.273438 92.785156 185.417969 94.292969 186.441406 95.859375 C 186.621094 96.097656 186.804688 96.21875 187.105469 96.460938 C 186.921875 102.902344 187.707031 110.792969 189.8125 120.488281 C 190.65625 124.339844 191.320312 127.894531 191.863281 131.148438 C 190.054688 131.929688 188.308594 132.53125 186.742188 133.011719 C 178.671875 135.421875 169.21875 142.40625 167.472656 151.984375 C 167.230469 153.429688 167.113281 155.054688 167.292969 156.859375 C 166.992188 156.078125 166.691406 155.234375 166.449219 154.453125 C 166.027344 153.007812 165.484375 151.679688 165.003906 150.234375 C 164.824219 149.816406 164.761719 149.332031 164.882812 148.851562 C 165.246094 146.925781 165.546875 144.996094 166.027344 143.128906 C 166.328125 141.925781 166.929688 140.78125 167.414062 139.636719 C 167.53125 139.335938 167.835938 139.035156 168.136719 138.914062 C 169.21875 138.371094 169.882812 137.410156 169.820312 136.144531 C 169.761719 135.0625 169.28125 134.15625 168.375 133.554688 C 167.714844 133.074219 166.929688 133.011719 166.207031 133.375 C 165.425781 133.796875 165.003906 134.457031 164.945312 135.363281 C 164.945312 136.144531 165.246094 136.867188 165.785156 137.410156 C 166.207031 137.890625 166.207031 138.3125 165.90625 138.855469 C 164.460938 141.382812 163.800781 144.09375 163.257812 146.925781 C 163.195312 147.285156 163.078125 147.648438 162.957031 148.128906 C 162.777344 147.949219 162.65625 147.886719 162.59375 147.765625 C 161.332031 146.441406 160.125 145.058594 158.863281 143.792969 C 158.441406 143.371094 158.140625 142.949219 158.078125 142.347656 C 158.019531 141.867188 157.957031 141.382812 157.957031 140.84375 C 157.898438 140.300781 157.835938 139.699219 157.777344 139.15625 C 157.65625 137.953125 157.476562 136.746094 157.476562 135.480469 C 157.535156 131.027344 158.019531 126.570312 158.980469 122.234375 C 159.644531 119.464844 159.945312 116.632812 159.765625 113.742188 C 159.644531 111.816406 159.402344 109.890625 159.164062 107.960938 C 158.800781 105.371094 158.621094 102.785156 158.558594 100.132812 C 158.5 96.882812 159.464844 93.8125 160.847656 90.859375 C 161.027344 90.5 161.210938 90.136719 161.332031 89.777344 C 161.390625 89.59375 161.210938 89.414062 161.148438 89.171875 C 160.96875 89.234375 160.667969 89.292969 160.546875 89.414062 C 160.308594 89.777344 160.066406 90.199219 159.886719 90.617188 C 159.402344 91.703125 158.980469 92.785156 158.5 93.929688 C 157.65625 95.917969 156.753906 97.90625 155.972656 99.953125 C 154.945312 102.722656 154.886719 105.554688 155.730469 108.445312 C 156.390625 110.730469 156.875 113.140625 157.71875 115.367188 C 157.835938 115.671875 157.898438 115.972656 157.835938 116.273438 C 157.777344 118.078125 157.835938 119.824219 157.234375 121.570312 C 156.753906 122.957031 156.574219 124.339844 156.695312 125.785156 C 156.753906 126.328125 156.753906 126.929688 156.695312 127.472656 C 156.574219 129.941406 156.453125 132.410156 156.332031 134.878906 C 156.273438 136.265625 156.332031 137.648438 156.632812 139.035156 C 156.753906 139.636719 156.875 140.238281 156.8125 140.960938 C 156.695312 140.78125 156.632812 140.601562 156.511719 140.480469 C 155.609375 138.792969 154.765625 137.109375 153.863281 135.480469 C 153.320312 134.457031 152.960938 133.433594 152.839844 132.289062 C 152.539062 130.003906 152.359375 127.714844 151.9375 125.425781 C 151.636719 123.679688 151.574219 121.871094 151.394531 120.125 C 151.09375 116.996094 150.371094 113.925781 149.527344 110.914062 C 149.40625 110.429688 149.167969 110.007812 148.984375 109.527344 C 148.382812 108.082031 147.78125 106.578125 147.117188 105.191406 C 146.695312 104.289062 146.214844 103.445312 145.671875 102.601562 C 145.191406 101.820312 144.648438 101.097656 144.167969 100.375 C 144.046875 100.195312 143.925781 99.953125 143.746094 99.832031 C 143.625 99.773438 143.445312 99.710938 143.324219 99.710938 C 143.203125 99.773438 143.144531 99.953125 143.082031 100.074219 C 143.023438 100.195312 143.082031 100.3125 143.144531 100.433594 C 143.988281 103.445312 144.109375 106.578125 144.289062 109.648438 C 144.46875 112.71875 145.792969 115.1875 147.660156 117.417969 C 148.925781 118.921875 149.707031 120.546875 150.25 122.355469 C 150.730469 124.039062 151.03125 125.847656 151.214844 127.59375 C 151.453125 129.941406 151.9375 132.289062 152.476562 134.578125 C 152.660156 135.480469 153.261719 136.265625 153.683594 137.046875 C 154.164062 137.953125 154.644531 138.792969 155.007812 139.699219 C 154.222656 139.09375 153.5625 138.371094 153.019531 137.589844 C 151.9375 135.902344 150.613281 134.457031 149.046875 133.195312 C 148.503906 132.773438 148.140625 132.109375 147.722656 131.628906 C 146.757812 130.542969 145.792969 129.460938 144.832031 128.375 C 144.648438 128.195312 144.46875 128.015625 144.289062 127.773438 C 143.265625 125.90625 142.058594 124.101562 141.21875 122.113281 C 140.195312 119.765625 139.351562 117.296875 138.507812 114.886719 C 138.328125 114.40625 138.265625 113.863281 138.144531 113.320312 C 138.027344 112.78125 138.027344 112.359375 138.445312 111.875 C 138.929688 111.394531 138.929688 110.730469 138.6875 110.128906 C 138.207031 108.984375 137.363281 108.261719 136.160156 107.902344 C 135.796875 107.78125 135.375 107.839844 135.015625 107.902344 C 133.808594 108.203125 133.269531 109.347656 133.929688 110.429688 C 134.472656 111.335938 135.195312 112.117188 136.277344 112.480469 C 136.699219 112.597656 136.820312 112.898438 136.941406 113.261719 C 137.363281 115.429688 138.265625 117.476562 139.109375 119.523438 C 140.011719 121.871094 140.976562 124.222656 142.359375 126.328125 C 142.421875 126.390625 142.359375 126.449219 142.359375 126.507812 C 142.300781 126.507812 142.242188 126.628906 142.242188 126.570312 C 140.433594 125.605469 138.566406 124.882812 136.941406 123.5 C 135.316406 122.113281 133.507812 121.03125 131.761719 119.824219 C 130.617188 119.042969 129.472656 118.320312 128.570312 117.296875 C 128.269531 116.875 128.089844 116.511719 128.027344 115.972656 C 127.96875 113.863281 128.269531 111.816406 128.632812 109.769531 C 129.355469 105.792969 127.066406 101.820312 123.753906 100.011719 C 120.261719 98.085938 116.707031 96.160156 112.972656 94.714844 C 111.769531 94.230469 110.503906 93.992188 109.300781 93.628906 C 109.058594 93.570312 108.820312 93.570312 108.636719 93.570312 C 107.976562 93.570312 107.734375 93.929688 108.035156 94.535156 C 108.578125 95.4375 109.058594 96.339844 109.722656 97.0625 C 111.648438 99.109375 113.578125 101.035156 115.5625 102.964844 C 116.585938 103.925781 117.792969 104.769531 118.9375 105.613281 C 120.140625 106.457031 121.105469 107.421875 121.886719 108.683594 C 122.609375 109.828125 123.273438 110.972656 124.054688 112.238281 C 123.753906 112.175781 123.574219 112.117188 123.390625 112.117188 C 123.332031 112.597656 123.574219 112.839844 123.875 113.082031 C 124.65625 113.804688 125.257812 114.648438 125.859375 115.550781 C 126.824219 117.117188 128.089844 118.441406 129.59375 119.523438 C 130.136719 119.886719 130.617188 120.367188 131.101562 120.730469 C 131.039062 120.789062 130.980469 120.910156 130.917969 120.96875 C 129.835938 120.546875 128.75 120.125 127.726562 119.585938 C 126.644531 119.042969 125.558594 118.5 124.476562 117.839844 C 123.511719 117.234375 122.550781 116.574219 121.644531 115.851562 C 120.019531 114.40625 118.152344 113.203125 116.226562 112.175781 C 115.683594 111.875 115.203125 111.574219 114.78125 111.152344 C 113.273438 109.46875 111.828125 107.78125 110.386719 106.035156 C 110.082031 105.671875 109.902344 105.191406 109.601562 104.710938 C 109.78125 104.53125 109.964844 104.347656 110.144531 104.167969 C 110.445312 103.808594 110.503906 103.386719 110.445312 102.964844 C 110.203125 101.640625 108.519531 100.195312 107.132812 100.253906 C 106.46875 100.253906 105.808594 100.496094 105.386719 101.035156 C 104.785156 101.820312 104.785156 102.902344 105.566406 103.566406 C 106.050781 103.925781 106.652344 104.230469 107.191406 104.410156 C 107.855469 104.589844 108.398438 104.832031 108.757812 105.371094 C 110.144531 107.480469 112.132812 109.105469 113.757812 110.972656 C 113.878906 111.152344 114.058594 111.335938 114.117188 111.636719 C 113.757812 111.574219 113.394531 111.515625 113.035156 111.335938 C 110.925781 110.492188 108.820312 109.527344 106.710938 108.746094 C 104.785156 108.023438 102.796875 107.359375 100.808594 106.699219 C 100.085938 106.457031 99.304688 106.457031 98.582031 106.457031 C 96.714844 106.457031 94.910156 106.578125 93.042969 106.699219 C 89.308594 106.9375 85.753906 107.960938 82.382812 109.648438 C 80.394531 110.613281 78.46875 111.574219 76.359375 112.175781 C 75.757812 112.359375 75.15625 112.597656 74.613281 112.898438 C 74.433594 113.019531 74.191406 113.382812 74.253906 113.621094 C 74.3125 113.863281 74.613281 114.042969 74.855469 114.164062 C 75.097656 114.285156 75.457031 114.285156 75.757812 114.164062 C 78.167969 113.5625 80.515625 113.925781 82.863281 114.40625 C 85.753906 115.007812 88.644531 114.949219 91.535156 114.644531 C 93.464844 114.464844 95.210938 113.863281 96.714844 112.597656 C 98.101562 111.394531 99.785156 110.914062 101.472656 110.429688 C 101.773438 110.371094 102.132812 110.25 102.4375 110.128906 C 103.277344 109.769531 104.183594 109.707031 105.085938 109.949219 C 106.710938 110.371094 108.335938 110.851562 109.964844 111.335938 C 110.746094 111.574219 111.46875 111.757812 112.25 111.996094 C 115.925781 113.203125 119.238281 115.066406 122.367188 117.355469 C 124.355469 118.800781 126.34375 120.066406 128.570312 121.089844 C 126.402344 120.488281 124.234375 120.007812 122.128906 119.34375 C 120.5625 118.863281 119.117188 118.140625 117.609375 117.535156 C 115.984375 116.875 114.300781 116.332031 112.550781 116.210938 C 111.226562 116.152344 109.902344 116.273438 108.636719 116.8125 C 105.988281 117.898438 103.398438 118.980469 100.75 120.066406 C 99.246094 120.667969 97.917969 121.632812 96.714844 122.714844 C 95.570312 123.738281 94.246094 124.582031 93.042969 125.546875 C 92.980469 125.605469 92.921875 125.605469 92.859375 125.667969 C 92.742188 125.847656 92.5 126.148438 92.558594 126.269531 C 92.621094 126.449219 92.921875 126.691406 93.101562 126.691406 C 94.304688 126.8125 95.511719 126.992188 96.65625 126.871094 C 98.21875 126.75 99.726562 126.691406 101.292969 126.628906 C 103.21875 126.570312 105.207031 126.449219 107.132812 126.089844 C 108.578125 125.785156 110.023438 125.183594 111.410156 124.523438 C 113.09375 123.738281 114.902344 123.316406 116.707031 122.835938 C 117.730469 122.59375 118.695312 122.292969 119.71875 122.234375 C 121.464844 122.054688 123.210938 121.992188 124.957031 122.234375 C 125.800781 122.355469 126.582031 122.476562 127.425781 122.476562 C 128.75 122.476562 130.015625 122.65625 131.28125 123.257812 C 133.75 124.339844 136.21875 125.304688 138.6875 126.328125 C 139.289062 126.570312 139.890625 126.75 140.496094 126.929688 C 141.636719 127.230469 142.542969 127.894531 143.625 128.796875 C 143.203125 128.675781 142.964844 128.617188 142.78125 128.496094 C 142.542969 128.4375 142.300781 128.316406 142.058594 128.195312 C 140.855469 127.714844 139.652344 127.535156 138.386719 127.652344 C 137.421875 127.714844 136.460938 127.835938 135.496094 127.894531 C 134.773438 127.953125 134.171875 127.835938 133.570312 127.351562 C 133.027344 126.992188 132.425781 126.691406 131.824219 126.507812 C 131.039062 126.328125 130.378906 126.628906 129.894531 127.292969 C 129.414062 127.953125 129.535156 128.617188 129.894531 129.28125 C 130.679688 130.664062 132.125 131.148438 133.386719 130.363281 C 133.871094 130.0625 134.171875 129.460938 134.652344 128.859375 C 136.699219 128.738281 138.929688 128.558594 141.15625 128.917969 C 141.941406 129.039062 142.601562 129.460938 143.324219 129.820312 C 144.347656 130.363281 145.433594 130.90625 146.394531 131.566406 C 147.117188 132.050781 147.839844 132.652344 148.445312 133.253906 C 150.070312 135 151.695312 136.867188 153.261719 138.675781 C 153.320312 138.734375 153.382812 138.792969 153.5625 138.976562 C 151.996094 138.675781 150.671875 138.371094 149.40625 137.710938 C 147.722656 136.867188 145.914062 136.625 144.046875 136.203125 C 140.554688 135.421875 137.0625 135.601562 133.570312 136.023438 C 132.664062 136.144531 131.761719 136.203125 130.917969 136.203125 C 128.992188 136.265625 127.125 136.625 125.320312 137.410156 C 124.957031 137.589844 124.476562 137.648438 124.113281 137.832031 C 123.8125 137.953125 123.453125 138.132812 123.632812 138.554688 C 123.753906 138.914062 124.054688 138.976562 124.355469 138.855469 C 127.609375 137.953125 130.738281 138.976562 133.808594 139.757812 C 135.617188 140.179688 137.363281 140.84375 139.167969 141.261719 C 140.375 141.566406 141.578125 141.746094 142.78125 141.867188 C 144.109375 141.984375 145.3125 141.804688 146.578125 141.324219 C 148.445312 140.601562 150.371094 140.421875 152.296875 140.421875 C 152.777344 140.421875 153.382812 140.601562 153.804688 140.84375 C 156.695312 142.527344 159.042969 144.757812 161.210938 147.226562 C 161.753906 147.886719 162.171875 148.609375 162.65625 149.332031 C 162.59375 149.394531 162.59375 149.453125 162.535156 149.511719 C 161.269531 149.273438 160.066406 149.03125 158.800781 148.730469 C 157.898438 148.488281 156.933594 148.25 156.03125 147.949219 C 155.667969 147.828125 155.367188 147.648438 155.128906 147.40625 C 154.585938 146.925781 153.984375 146.621094 153.261719 146.503906 C 152.117188 146.320312 151.335938 147.042969 151.394531 148.1875 C 151.453125 149.332031 151.9375 150.296875 152.960938 150.898438 C 153.984375 151.5 154.707031 151.378906 155.429688 150.417969 C 155.488281 150.355469 155.550781 150.296875 155.730469 150.117188 C 156.273438 150.234375 156.875 150.417969 157.476562 150.597656 C 158.558594 150.839844 159.585938 151.140625 160.667969 151.320312 C 161.8125 151.5625 162.835938 151.984375 163.679688 152.765625 C 163.980469 153.066406 164.460938 153.308594 164.761719 153.609375 C 165.003906 153.847656 165.246094 154.152344 165.363281 154.453125 C 166.085938 156.136719 167.171875 157.945312 168.015625 159.691406 C 168.917969 163.003906 170.84375 166.675781 174.335938 170.589844 C 171.085938 172.277344 167.53125 174.203125 163.859375 176.671875 C 160.546875 178.902344 158.921875 181.25 158.800781 183.777344 C 158.558594 188.65625 164.222656 193.292969 170.785156 198.652344 C 180.238281 206.359375 190.957031 215.152344 187.105469 227.015625 C 184.695312 234.542969 180.660156 239.359375 175.121094 241.410156 C 174.578125 240.082031 173.976562 238.757812 173.3125 237.433594 C 164.824219 220.089844 156.574219 218.101562 152.417969 218.40625 C 147.660156 218.765625 144.46875 222.5 143.386719 225.992188 C 142.300781 229.664062 143.324219 233.277344 146.09375 235.507812 C 151.636719 239.84375 163.679688 246.285156 174.21875 243.335938 C 177.226562 251.40625 177.226562 257.847656 174.15625 262.664062 C 168.195312 272 152.539062 271.820312 152.359375 271.820312 L 152.359375 273.324219 C 152.417969 273.324219 152.476562 273.324219 152.597656 273.324219 C 154.828125 273.324219 169.398438 272.964844 175.421875 263.507812 C 178.734375 258.328125 178.792969 251.40625 175.664062 242.914062 C 181.625 240.6875 185.960938 235.566406 188.550781 227.558594 C 192.703125 214.671875 181.082031 205.214844 171.75 197.570312 C 165.785156 192.691406 160.125 188.054688 160.308594 183.960938 C 160.367188 181.910156 161.8125 179.984375 164.703125 178.058594 C 168.4375 175.527344 172.109375 173.601562 175.421875 171.855469 C 177.109375 173.601562 179.15625 175.46875 181.5625 177.335938 C 199.269531 190.945312 215.105469 201.90625 230.703125 202.6875 C 225.886719 206.480469 220.164062 217.800781 220.164062 250.5625 L 221.671875 250.5625 C 221.671875 216.898438 227.871094 206.902344 231.546875 203.953125 C 232.328125 203.289062 233.113281 202.929688 233.714844 202.746094 C 241.421875 202.507812 249.128906 199.617188 257.019531 193.234375 C 272.011719 181.128906 273.578125 176.070312 276.710938 166.011719 C 278.699219 159.628906 281.40625 150.957031 289.054688 136.867188 C 300.796875 115.1875 297.304688 104.53125 294.234375 95.195312 C 292.546875 92.484375 291.707031 90.015625 291.222656 87.367188 Z M 230.039062 128.195312 C 229.859375 128.015625 229.980469 127.535156 230.101562 127.230469 C 230.460938 126.328125 230.824219 125.847656 231.367188 125.667969 C 231.484375 125.605469 231.667969 125.605469 231.847656 125.605469 C 232.992188 125.605469 234.679688 126.628906 236.425781 127.652344 C 236.605469 127.773438 236.726562 127.835938 236.90625 127.953125 C 233.652344 128.558594 230.703125 128.980469 230.039062 128.195312 Z M 244.433594 148.972656 C 243.769531 149.632812 242.265625 149.816406 239.917969 149.511719 C 233.414062 148.609375 228.292969 149.152344 225.402344 149.695312 C 227.992188 147.34375 233.050781 143.550781 238.773438 143.550781 C 240.699219 143.550781 242.746094 143.972656 244.792969 144.996094 C 245.09375 146.863281 245.15625 148.308594 244.433594 148.972656 Z M 230.28125 20.703125 C 230.402344 20.703125 230.34375 20.703125 230.28125 20.703125 Z M 239.074219 35.277344 C 239.132812 35.277344 239.195312 35.277344 239.253906 35.335938 C 239.132812 36.421875 239.011719 37.503906 238.832031 38.589844 C 238.53125 40.335938 238.050781 42.082031 237.808594 43.886719 C 237.507812 45.816406 236.84375 47.5625 235.941406 49.1875 C 235.703125 49.609375 235.460938 49.972656 235.160156 50.332031 C 233.050781 52.742188 230.34375 54.1875 227.210938 54.910156 C 225.824219 55.210938 224.378906 55.449219 222.996094 55.75 C 222.453125 55.871094 221.972656 55.992188 221.429688 56.113281 C 218.960938 56.835938 216.730469 58.039062 214.503906 59.183594 C 214.261719 59.304688 214.082031 59.425781 213.84375 59.546875 C 214.804688 58.039062 216.070312 56.777344 217.515625 55.75 C 218.117188 55.332031 218.71875 54.96875 219.261719 54.546875 C 221.128906 53.164062 223.054688 51.957031 225.164062 50.996094 C 227.390625 50.03125 229.738281 49.429688 232.148438 48.945312 C 232.449219 48.886719 232.871094 48.886719 233.171875 48.464844 C 230.945312 48.527344 229.015625 49.429688 226.910156 49.667969 C 227.8125 48.945312 228.777344 48.285156 229.679688 47.621094 C 229.738281 47.621094 229.800781 47.621094 229.800781 47.5625 C 230.222656 47.320312 230.644531 47.082031 231.003906 46.777344 C 231.425781 46.476562 231.789062 46.117188 232.148438 45.753906 C 233.835938 44.25 235.519531 42.746094 236.664062 40.757812 C 237.386719 39.492188 237.988281 38.226562 238.472656 36.84375 C 238.710938 36.300781 238.894531 35.757812 239.074219 35.277344 Z M 216.492188 54.367188 C 217.816406 52.019531 219.441406 49.972656 221.488281 48.222656 C 222.332031 47.5 223.234375 46.839844 224.140625 46.296875 C 225.402344 45.574219 226.789062 45.03125 228.054688 44.308594 C 229.621094 43.46875 231.367188 42.804688 232.8125 41.660156 C 234.796875 40.09375 236.605469 38.410156 238.050781 36.300781 C 238.230469 36.058594 238.410156 35.820312 238.53125 35.578125 C 237.6875 39.191406 234.859375 43.46875 232.628906 44.609375 C 233.050781 44.007812 233.472656 43.46875 233.835938 42.925781 C 234.738281 41.539062 234.738281 41.539062 234.679688 41.058594 C 234.617188 41.117188 234.496094 41.117188 234.496094 41.179688 C 233.652344 42.863281 232.390625 44.25 231.246094 45.753906 C 231.003906 46.117188 230.644531 46.417969 230.28125 46.660156 C 228.835938 47.683594 227.332031 48.707031 225.824219 49.667969 C 224.863281 50.332031 223.839844 50.875 222.816406 51.476562 C 222.273438 51.777344 221.671875 52.078125 220.886719 52.5 C 222.03125 50.753906 223.355469 49.308594 224.140625 47.5 C 224.019531 47.621094 223.957031 47.742188 223.839844 47.863281 C 222.753906 49.308594 221.730469 50.753906 220.707031 52.199219 C 220.226562 52.921875 219.621094 53.464844 218.898438 53.945312 C 217.636719 54.847656 216.25 55.570312 215.167969 56.65625 C 215.167969 56.65625 215.105469 56.65625 214.984375 56.65625 C 215.527344 55.933594 216.007812 55.148438 216.492188 54.367188 Z M 205.109375 29.316406 C 205.710938 30.519531 206.496094 31.605469 207.457031 32.507812 C 209.203125 34.132812 210.953125 35.757812 212.699219 37.386719 C 213.660156 38.289062 214.503906 39.371094 214.984375 40.636719 C 215.347656 41.480469 215.589844 42.324219 215.890625 43.164062 C 216.25 44.25 216.429688 45.394531 216.429688 46.597656 C 216.371094 49.066406 216.128906 51.535156 215.40625 53.945312 C 215.046875 55.210938 214.445312 56.414062 213.84375 57.617188 C 213.960938 55.933594 214.082031 54.304688 214.144531 52.621094 C 214.144531 51.71875 214.023438 50.8125 213.960938 49.972656 C 213.960938 49.730469 213.902344 49.429688 213.902344 49.1875 C 214.023438 48.164062 214.261719 47.140625 214.382812 46.175781 C 214.503906 45.273438 214.625 44.429688 214.746094 43.527344 C 214.746094 43.40625 214.683594 43.226562 214.683594 43.105469 C 214.625 43.105469 214.566406 43.105469 214.503906 43.105469 C 214.082031 44.792969 213.960938 46.597656 213.421875 48.34375 C 213.179688 47.683594 212.878906 47.019531 212.757812 46.359375 C 212.277344 44.492188 211.433594 42.804688 210.230469 41.300781 C 210.046875 41.058594 209.867188 40.695312 209.808594 40.335938 C 209.6875 39.613281 209.625 38.890625 209.625 38.226562 C 209.625 37.324219 209.625 36.359375 209.386719 35.457031 C 209.023438 36.902344 209.324219 38.347656 209.144531 39.792969 C 208.785156 39.25 208.480469 38.648438 208.242188 38.046875 C 207.757812 36.902344 207.339844 35.699219 206.496094 34.734375 C 205.953125 34.074219 205.710938 33.351562 205.472656 32.507812 C 205.351562 32.027344 205.230469 31.542969 204.988281 31.121094 C 204.628906 30.398438 204.566406 29.617188 204.507812 28.773438 C 204.871094 28.894531 204.988281 29.074219 205.109375 29.316406 Z M 211.433594 44.492188 C 211.371094 44.492188 211.371094 44.550781 211.3125 44.550781 C 211.253906 44.371094 211.191406 44.191406 211.132812 44.007812 C 211.191406 44.128906 211.3125 44.308594 211.433594 44.492188 Z M 211.132812 50.753906 C 210.710938 49.066406 209.867188 47.5625 208.902344 46.054688 C 208 44.609375 207.15625 43.105469 206.375 41.601562 C 205.773438 40.457031 205.289062 39.25 204.75 38.109375 C 204.207031 37.023438 203.84375 35.941406 203.726562 34.734375 C 203.605469 33.53125 203.542969 32.265625 203.542969 31.0625 C 203.542969 30.21875 203.605469 29.316406 203.664062 28.472656 C 203.84375 28.59375 203.90625 28.714844 203.90625 28.832031 C 204.085938 29.917969 204.386719 30.941406 204.929688 31.964844 C 205.050781 32.144531 205.050781 32.386719 205.109375 32.628906 C 205.351562 33.351562 205.589844 34.074219 206.132812 34.675781 C 206.554688 35.21875 206.855469 35.757812 207.035156 36.421875 C 207.457031 38.109375 208.121094 39.734375 209.265625 41.117188 C 209.566406 41.480469 209.867188 41.839844 210.109375 42.203125 C 210.46875 42.746094 210.710938 43.285156 211.011719 43.886719 C 210.109375 42.925781 209.203125 41.902344 208.363281 40.9375 C 207.457031 39.914062 206.617188 38.890625 205.710938 37.925781 C 205.652344 38.167969 205.710938 38.410156 205.832031 38.589844 C 206.433594 39.492188 207.035156 40.394531 207.820312 41.117188 C 208.242188 41.480469 208.664062 41.902344 209.085938 42.324219 C 210.648438 43.949219 211.613281 45.9375 212.515625 47.921875 C 213 49.007812 213.359375 50.089844 213.359375 51.234375 C 213.359375 53.042969 213.238281 54.847656 213.121094 56.59375 C 213 57.679688 212.515625 58.703125 212.035156 59.726562 C 212.035156 59.484375 212.035156 59.246094 212.09375 59.003906 C 212.335938 57.195312 212.398438 55.449219 211.914062 53.644531 C 211.734375 52.679688 211.371094 51.71875 211.132812 50.753906 Z M 156.996094 30.761719 C 156.933594 30.761719 156.875 30.761719 156.996094 30.761719 Z M 145.734375 53.34375 C 147.78125 56.414062 150.429688 58.882812 153.320312 61.113281 C 155.429688 62.738281 157.898438 63.640625 160.246094 64.90625 C 162.113281 65.929688 164.101562 66.710938 165.90625 67.796875 C 167.292969 68.578125 168.558594 69.542969 169.761719 70.566406 C 172.710938 73.09375 175.121094 76.105469 177.046875 79.476562 C 177.710938 80.621094 178.371094 81.765625 179.09375 82.972656 C 178.976562 82.972656 178.855469 82.972656 178.855469 82.972656 C 177.289062 81.34375 175.300781 80.320312 173.496094 78.996094 C 172.472656 78.273438 171.628906 77.429688 170.90625 76.40625 C 169.398438 74.300781 167.835938 72.191406 166.328125 70.085938 C 166.207031 69.902344 166.089844 69.722656 165.90625 69.542969 C 167.050781 72.191406 168.917969 74.238281 170.605469 76.769531 C 169.519531 76.167969 168.675781 75.804688 167.835938 75.324219 C 166.390625 74.480469 164.882812 73.636719 163.4375 72.671875 C 161.269531 71.226562 159.101562 69.78125 156.996094 68.277344 C 156.511719 67.917969 156.03125 67.433594 155.609375 66.953125 C 153.921875 64.84375 152.175781 62.796875 150.914062 60.328125 C 150.851562 60.269531 150.730469 60.207031 150.671875 60.148438 C 150.613281 60.871094 150.613281 60.929688 151.875 62.859375 C 152.417969 63.699219 153.019531 64.484375 153.621094 65.328125 C 150.371094 63.699219 146.277344 57.4375 145.070312 52.199219 C 145.253906 52.679688 145.492188 52.980469 145.734375 53.34375 Z M 179.9375 86.464844 C 176.6875 84.777344 173.433594 82.972656 169.882812 81.949219 C 169.160156 81.707031 168.375 81.527344 167.59375 81.40625 C 165.546875 80.984375 163.5 80.683594 161.449219 80.199219 C 156.933594 79.175781 153.082031 77.007812 149.949219 73.578125 C 149.527344 73.09375 149.167969 72.492188 148.804688 71.949219 C 147.480469 69.542969 146.457031 67.011719 146.09375 64.242188 C 145.734375 61.652344 145.070312 59.125 144.589844 56.59375 C 144.289062 55.027344 144.167969 53.464844 143.925781 51.898438 C 143.988281 51.898438 144.109375 51.835938 144.167969 51.835938 C 144.410156 52.558594 144.710938 53.28125 144.949219 54.003906 C 145.613281 55.992188 146.515625 57.859375 147.539062 59.667969 C 149.226562 62.558594 151.695312 64.664062 154.105469 66.890625 C 154.644531 67.375 155.1875 67.917969 155.789062 68.335938 C 156.332031 68.757812 156.933594 69.121094 157.535156 69.480469 C 157.597656 69.542969 157.65625 69.542969 157.71875 69.542969 C 159.042969 70.503906 160.425781 71.46875 161.753906 72.492188 C 158.742188 72.191406 155.972656 70.867188 152.71875 70.746094 C 153.199219 71.289062 153.742188 71.289062 154.226562 71.410156 C 157.65625 72.132812 161.03125 73.035156 164.339844 74.417969 C 167.472656 75.746094 170.242188 77.550781 172.894531 79.539062 C 173.734375 80.140625 174.578125 80.742188 175.480469 81.34375 C 177.589844 82.851562 179.335938 84.65625 180.78125 86.886719 C 180.539062 86.765625 180.238281 86.644531 179.9375 86.464844 Z M 179.757812 63.097656 C 179.699219 63.097656 179.578125 63.097656 179.515625 63.097656 C 179.457031 63.339844 179.394531 63.519531 179.394531 63.761719 C 179.578125 65.027344 179.757812 66.351562 179.9375 67.613281 C 180.179688 69.058594 180.421875 70.566406 180.660156 72.011719 C 180.722656 72.371094 180.601562 72.734375 180.601562 73.09375 C 180.480469 74.359375 180.300781 75.683594 180.359375 76.949219 C 180.421875 79.359375 180.601562 81.765625 180.78125 84.175781 C 179.9375 82.429688 179.09375 80.742188 178.554688 78.875 C 177.53125 75.382812 177.167969 71.832031 177.109375 68.21875 C 177.046875 66.53125 177.347656 64.90625 177.890625 63.277344 C 178.3125 62.074219 178.671875 60.808594 179.214844 59.605469 C 179.9375 57.800781 181.144531 56.234375 182.527344 54.910156 C 185.058594 52.558594 187.585938 50.210938 190.117188 47.863281 C 191.5625 46.539062 192.703125 44.972656 193.546875 43.226562 C 193.730469 42.863281 193.910156 42.5625 194.210938 42.261719 C 194.148438 43.40625 194.03125 44.550781 193.546875 45.636719 C 193.246094 46.296875 193.066406 46.960938 192.886719 47.621094 C 192.585938 48.765625 192.222656 49.910156 191.441406 50.8125 C 190.296875 52.257812 189.632812 53.945312 188.972656 55.632812 C 188.609375 56.535156 188.1875 57.378906 187.644531 58.160156 C 187.40625 56.054688 187.765625 53.945312 187.285156 51.835938 C 186.984375 53.164062 186.984375 54.488281 186.921875 55.8125 C 186.921875 56.835938 186.804688 57.859375 186.683594 58.882812 C 186.621094 59.363281 186.382812 59.90625 186.082031 60.269531 C 184.335938 62.4375 183.128906 64.90625 182.40625 67.613281 C 182.167969 68.578125 181.746094 69.542969 181.382812 70.503906 C 180.539062 68.15625 180.359375 65.566406 179.757812 63.097656 Z M 184.816406 64.484375 C 184.695312 64.722656 184.636719 65.027344 184.515625 65.265625 C 184.453125 65.207031 184.394531 65.207031 184.335938 65.144531 C 184.515625 64.964844 184.636719 64.722656 184.816406 64.484375 Z M 183.3125 86.28125 C 183.371094 86.585938 183.429688 86.945312 183.371094 87.308594 C 182.707031 85.863281 181.925781 84.417969 181.804688 82.789062 C 181.5625 80.199219 181.445312 77.613281 181.445312 75.023438 C 181.445312 73.335938 181.984375 71.710938 182.648438 70.203125 C 183.914062 67.253906 185.359375 64.421875 187.585938 62.074219 C 188.1875 61.472656 188.789062 60.871094 189.453125 60.328125 C 190.65625 59.304688 191.5 57.980469 192.34375 56.65625 C 192.523438 56.414062 192.585938 56.054688 192.523438 55.691406 C 191.257812 57.136719 189.996094 58.640625 188.730469 60.085938 C 187.464844 61.53125 186.140625 62.976562 184.875 64.363281 C 185.296875 63.582031 185.71875 62.738281 186.199219 61.953125 C 186.5625 61.414062 186.984375 60.871094 187.40625 60.328125 C 189.03125 58.339844 189.996094 55.992188 190.597656 53.523438 C 190.839844 52.558594 191.257812 51.71875 191.863281 50.933594 C 192.585938 50.03125 193.007812 49.007812 193.308594 47.984375 C 193.425781 47.683594 193.425781 47.320312 193.609375 47.019531 C 194.332031 45.574219 194.8125 44.070312 195.113281 42.503906 C 195.171875 42.324219 195.234375 42.140625 195.476562 41.960938 C 195.535156 43.226562 195.65625 44.429688 195.65625 45.695312 C 195.65625 47.5 195.535156 49.25 195.414062 51.054688 C 195.292969 52.800781 194.753906 54.367188 193.96875 55.933594 C 193.1875 57.617188 192.464844 59.304688 191.621094 60.992188 C 190.476562 63.160156 189.273438 65.386719 187.949219 67.496094 C 186.5625 69.664062 185.359375 71.832031 184.757812 74.300781 C 184.394531 75.746094 183.914062 77.128906 183.492188 78.574219 C 182.828125 81.105469 182.949219 83.695312 183.3125 86.28125 Z M 156.695312 110.128906 C 156.511719 109.347656 156.390625 108.503906 156.089844 107.722656 C 154.886719 104.347656 155.550781 101.15625 156.933594 97.84375 C 156.996094 98.027344 157.054688 98.144531 157.054688 98.207031 C 156.875 102.058594 157.296875 105.855469 158.019531 109.648438 C 158.140625 110.3125 158.140625 111.035156 158.199219 111.757812 C 157.535156 110.128906 157.296875 108.382812 156.453125 106.816406 C 156.574219 107.839844 156.8125 108.804688 157.054688 109.769531 C 157.296875 110.730469 157.597656 111.695312 157.597656 112.660156 C 157.113281 111.9375 156.875 111.035156 156.695312 110.128906 Z M 149.890625 119.523438 C 149.347656 118.679688 148.925781 117.839844 148.324219 117.175781 C 147.359375 116.152344 146.636719 115.007812 145.855469 113.804688 C 145.070312 112.597656 144.648438 111.273438 144.53125 109.828125 C 144.289062 107.300781 144.046875 104.832031 143.746094 102.363281 C 143.746094 102.242188 143.808594 102.121094 143.808594 101.941406 C 144.769531 103.023438 145.371094 104.226562 145.855469 105.433594 C 146.335938 106.578125 146.816406 107.722656 147.359375 108.867188 C 147.660156 109.589844 148.023438 110.3125 148.261719 111.09375 C 148.683594 112.359375 148.863281 113.683594 149.105469 115.007812 C 149.046875 115.007812 148.984375 115.066406 148.925781 115.066406 C 148.382812 113.804688 147.839844 112.539062 147.300781 111.335938 C 147.238281 111.335938 147.179688 111.394531 147.117188 111.394531 C 147.238281 111.816406 147.300781 112.175781 147.480469 112.597656 C 148.082031 113.984375 148.683594 115.367188 149.347656 116.753906 C 149.648438 117.597656 149.949219 118.5 149.890625 119.523438 Z M 126.945312 109.167969 C 126.765625 110.371094 126.585938 111.574219 126.402344 113.019531 C 125.863281 111.636719 125.378906 110.429688 124.957031 109.226562 C 124.777344 108.683594 124.65625 108.082031 124.535156 107.480469 C 124.234375 106.214844 123.8125 105.070312 122.972656 104.109375 C 122.851562 103.988281 122.667969 103.867188 122.367188 103.6875 C 122.429688 103.925781 122.429688 104.046875 122.429688 104.109375 C 123.390625 107.238281 124.417969 110.3125 125.378906 113.441406 C 125.441406 113.683594 125.5 113.863281 125.558594 114.105469 C 125.5 114.164062 125.441406 114.164062 125.441406 114.226562 C 125.320312 113.984375 125.140625 113.742188 125.019531 113.441406 C 123.996094 111.636719 123.03125 109.890625 122.007812 108.082031 C 121.164062 106.636719 120.019531 105.492188 118.636719 104.53125 C 117.308594 103.625 116.046875 102.601562 114.839844 101.519531 C 113.035156 99.832031 111.347656 98.085938 109.664062 96.339844 C 109.242188 95.917969 108.941406 95.375 108.578125 94.894531 C 108.457031 94.714844 108.457031 94.53125 108.277344 94.113281 C 109.300781 94.414062 110.203125 94.59375 110.988281 94.894531 C 112.492188 95.496094 114 96.097656 115.445312 96.820312 C 117.972656 98.085938 120.5 99.289062 122.851562 100.796875 C 125.980469 102.664062 127.425781 105.492188 126.945312 109.167969 Z M 99.304688 109.167969 C 99.003906 109.226562 98.640625 109.226562 98.339844 109.285156 C 96.714844 109.347656 95.027344 109.347656 93.402344 109.46875 C 92.5 109.527344 91.65625 109.769531 90.8125 110.007812 C 90.390625 110.128906 90.089844 110.429688 89.730469 110.671875 C 90.390625 110.550781 90.996094 110.191406 91.597656 110.070312 C 93.644531 109.589844 95.75 109.890625 97.917969 109.707031 C 96.65625 110.550781 95.632812 111.394531 94.425781 112.058594 C 93.644531 112.476562 92.800781 112.960938 91.957031 113.082031 C 89.910156 113.382812 87.800781 113.621094 85.753906 113.503906 C 83.347656 113.382812 80.9375 112.839844 78.769531 112.539062 C 79.914062 111.875 81.179688 111.09375 82.503906 110.429688 C 85.753906 108.804688 89.128906 107.839844 92.742188 107.539062 C 94.367188 107.421875 95.992188 107.359375 97.617188 107.300781 C 99.605469 107.179688 101.351562 107.78125 103.160156 108.445312 C 101.773438 108.683594 100.507812 108.925781 99.304688 109.167969 Z M 123.089844 121.148438 C 122.128906 121.03125 121.105469 121.03125 120.140625 121.148438 C 119.539062 121.210938 118.875 121.089844 118.273438 120.96875 C 117.429688 120.847656 116.585938 120.488281 115.746094 120.425781 C 112.914062 120.1875 110.082031 120.546875 107.3125 121.332031 C 107.191406 121.390625 107.132812 121.453125 107.011719 121.511719 C 107.375 121.453125 107.734375 121.453125 108.035156 121.390625 C 110.386719 120.847656 112.792969 120.667969 115.203125 120.789062 C 116.105469 120.847656 116.949219 121.03125 117.730469 121.453125 C 117.308594 121.632812 116.949219 121.691406 116.527344 121.753906 C 114.417969 122.171875 112.3125 122.59375 110.386719 123.558594 C 109.300781 124.101562 108.15625 124.523438 106.953125 124.882812 C 106.351562 125.125 105.6875 125.183594 105.027344 125.246094 C 102.738281 125.425781 100.507812 125.785156 98.21875 125.605469 C 97.558594 125.546875 96.894531 125.726562 96.234375 125.785156 C 95.632812 125.847656 95.027344 125.90625 94.425781 125.90625 C 94.1875 125.90625 93.945312 125.785156 93.644531 125.667969 C 94.667969 124.824219 95.691406 124.039062 96.59375 123.257812 C 97.617188 122.355469 98.703125 121.570312 99.96875 121.03125 C 102.675781 119.886719 105.386719 118.742188 108.097656 117.65625 C 109.664062 117.054688 111.226562 116.996094 112.855469 117.355469 C 114.417969 117.71875 115.925781 118.320312 117.429688 118.921875 C 118.816406 119.464844 120.199219 119.945312 121.644531 120.425781 C 122.25 120.609375 122.910156 120.789062 123.511719 120.910156 C 123.453125 121.148438 123.273438 121.148438 123.089844 121.148438 Z M 149.769531 139.398438 C 147.960938 139.515625 146.277344 139.9375 144.589844 140.539062 C 144.046875 140.722656 143.445312 140.78125 142.84375 140.84375 C 141.035156 140.902344 139.289062 140.539062 137.605469 140 C 135.496094 139.398438 133.390625 138.792969 131.28125 138.191406 C 130.136719 137.890625 128.992188 137.710938 127.789062 137.410156 C 127.789062 137.347656 127.789062 137.347656 127.789062 137.289062 C 128.148438 137.230469 128.511719 137.167969 128.933594 137.109375 C 130.800781 136.925781 132.667969 136.746094 134.53125 136.566406 C 136.820312 136.386719 139.050781 136.085938 141.335938 136.507812 C 142.84375 136.746094 144.347656 136.988281 145.792969 137.347656 C 146.636719 137.53125 147.480469 137.710938 148.324219 138.253906 C 148.023438 138.371094 147.839844 138.433594 147.660156 138.492188 C 146.578125 138.675781 145.433594 138.792969 144.347656 138.976562 C 143.445312 139.09375 142.542969 139.214844 141.640625 139.398438 C 141.335938 139.457031 141.035156 139.636719 140.675781 139.757812 C 140.675781 139.816406 140.734375 139.878906 140.734375 139.9375 C 143.085938 139.699219 145.371094 139.757812 147.660156 139.214844 C 148.503906 139.035156 149.347656 138.914062 150.371094 139.214844 C 150.070312 139.335938 149.890625 139.398438 149.769531 139.398438 Z M 146.09375 234.242188 C 143.808594 232.433594 142.964844 229.484375 143.925781 226.351562 C 144.832031 223.34375 147.539062 220.210938 151.636719 219.851562 C 151.875 219.851562 152.117188 219.851562 152.359375 219.851562 C 156.332031 219.851562 163.4375 222.5 171.027344 238.035156 C 171.6875 239.359375 172.230469 240.625 172.710938 241.828125 C 162.835938 244.539062 151.394531 238.398438 146.09375 234.242188 Z M 190.535156 119.585938 C 186.199219 99.652344 186.984375 86.34375 193.066406 77.671875 C 198.425781 70.023438 207.339844 66.890625 216.730469 63.640625 C 218.417969 63.039062 220.164062 62.4375 221.851562 61.835938 C 241.421875 54.609375 242.445312 51.175781 244.3125 44.972656 C 244.433594 44.550781 244.554688 44.070312 244.734375 43.648438 C 246.960938 36.601562 250.457031 31.90625 262.378906 27.507812 C 271.773438 24.015625 277.253906 21.667969 279.902344 18.355469 C 278.9375 24.257812 274.601562 35.636719 256.417969 42.023438 C 243.046875 46.71875 242.144531 53.523438 241.300781 60.027344 C 240.457031 66.289062 239.617188 72.792969 227.453125 78.214844 C 211.070312 85.441406 202.820312 92.125 202.941406 97.964844 C 203.003906 101.339844 205.953125 104.167969 211.554688 106.394531 C 214.261719 107.480469 215.527344 108.867188 215.46875 110.792969 C 215.226562 116.574219 203.003906 125.183594 192.402344 130.003906 C 191.980469 126.75 191.320312 123.316406 190.535156 119.585938 Z M 174.820312 169.867188 C 169.339844 163.84375 167.050781 157.644531 168.136719 151.742188 C 169.820312 142.769531 178.734375 136.203125 186.382812 133.917969 C 187.949219 133.433594 189.574219 132.832031 191.320312 132.171875 C 195.175781 158.847656 187.226562 163.363281 174.820312 169.867188 Z M 289.355469 85.320312 C 287.1875 84.535156 285.503906 83.273438 284.539062 82.488281 C 285.503906 82.1875 286.40625 81.765625 287.25 81.34375 C 287.609375 81.765625 288.273438 82.308594 289.175781 82.851562 C 289.238281 83.695312 289.296875 84.535156 289.355469 85.320312 Z M 288.632812 80.5625 C 288.875 80.382812 289.117188 80.261719 289.296875 80.082031 C 289.296875 80.441406 289.238281 80.742188 289.238281 81.105469 C 288.996094 80.921875 288.816406 80.742188 288.632812 80.5625 Z M 253.585938 126.691406 C 255.996094 126.691406 257.921875 127.113281 258.824219 128.257812 C 259.367188 128.917969 259.488281 129.28125 259.546875 129.398438 C 259.066406 129.640625 257.078125 129.519531 255.574219 129.398438 C 254.429688 129.339844 253.164062 129.21875 251.960938 129.21875 C 252.683594 128.558594 253.226562 127.714844 253.585938 126.691406 Z M 241.300781 128.558594 C 244.792969 127.835938 248.648438 126.992188 251.960938 126.75 C 251.480469 127.714844 250.816406 128.375 249.914062 128.796875 C 246.84375 130.304688 243.953125 129.761719 241.300781 128.558594 Z M 286.828125 136.023438 C 279.179688 150.234375 276.410156 159.027344 274.363281 165.410156 C 271.292969 175.167969 269.785156 180.042969 255.152344 191.90625 C 251.597656 194.796875 248.046875 196.90625 244.554688 198.410156 C 245.578125 197.507812 246.480469 196.425781 247.023438 195.097656 C 248.46875 191.546875 247.203125 187.210938 243.289062 182.210938 C 237.871094 175.347656 237.566406 172.277344 238.230469 170.890625 C 239.011719 169.324219 241.722656 169.085938 243.953125 169.085938 C 244.492188 169.085938 244.976562 169.085938 245.398438 169.085938 C 245.9375 169.085938 246.359375 169.085938 246.78125 169.085938 C 248.46875 169.023438 250.09375 168.179688 250.695312 167.039062 C 250.996094 166.433594 250.996094 165.773438 250.636719 165.230469 C 249.734375 163.90625 246.960938 163.425781 242.445312 163.84375 C 232.027344 164.808594 228.234375 160.351562 228.175781 160.292969 L 228.113281 160.234375 C 226.246094 158.484375 225.464844 157.039062 225.824219 156.257812 C 226.847656 153.96875 236.003906 154.511719 241.484375 154.8125 C 247.324219 155.113281 249.191406 155.175781 249.613281 154.148438 C 249.734375 153.910156 249.851562 153.425781 249.3125 152.886719 C 247.867188 151.320312 247.804688 150.71875 247.804688 150.65625 C 248.890625 150.839844 253.585938 151.679688 256.957031 150.117188 C 260.210938 148.609375 267.738281 149.816406 267.859375 149.816406 L 270.929688 150.296875 L 268.402344 148.429688 C 255.933594 139.277344 248.589844 141.683594 246.058594 143.191406 C 246.058594 143.007812 246 142.890625 246 142.707031 C 245.578125 140.300781 245.09375 137.53125 245.214844 134.578125 C 245.277344 133.433594 245.636719 132.589844 246.359375 131.988281 C 248.289062 130.304688 252.320312 130.605469 255.511719 130.84375 C 258.402344 131.085938 260.332031 131.207031 260.992188 130.0625 C 261.476562 129.160156 260.753906 128.074219 260.089844 127.292969 C 258.886719 125.785156 256.71875 125.246094 254.128906 125.183594 C 255.511719 119.222656 253.226562 109.285156 250.875 98.929688 C 249.011719 90.617188 247.023438 82.007812 247.023438 75.5625 C 247.023438 68.519531 252.320312 62.738281 256.839844 59.183594 C 266.835938 51.234375 280.082031 47.441406 284.480469 48.40625 C 287.910156 49.1875 290.441406 50.210938 291.886719 52.621094 C 294.054688 56.234375 293.570312 63.160156 290.441406 74.238281 C 290.078125 75.503906 289.839844 76.707031 289.65625 77.851562 C 282.011719 85.5 257.140625 82.429688 256.898438 82.367188 L 256.71875 83.875 C 257.019531 83.933594 259.125 84.175781 262.199219 84.355469 C 262.738281 85.199219 265.148438 88.691406 268.703125 91.101562 L 269.542969 89.835938 C 267.074219 88.148438 265.089844 85.800781 264.125 84.417969 C 265.390625 84.476562 266.835938 84.535156 268.28125 84.535156 C 268.402344 84.535156 268.582031 84.535156 268.703125 84.535156 C 269.484375 85.679688 272.074219 89.113281 276.347656 90.558594 L 276.832031 89.113281 C 273.820312 88.03125 271.652344 85.800781 270.570312 84.476562 C 272.195312 84.417969 273.820312 84.355469 275.445312 84.175781 C 276.167969 85.257812 278.515625 87.847656 284.179688 89.355469 L 284.539062 87.910156 C 280.382812 86.824219 278.214844 85.078125 277.191406 83.996094 C 279.179688 83.753906 281.105469 83.390625 282.914062 82.851562 C 283.757812 83.695312 286.105469 85.800781 289.597656 86.824219 C 290.078125 89.777344 290.984375 92.546875 291.886719 95.375 C 295.015625 105.070312 298.269531 114.949219 286.828125 136.023438 Z M 286.828125 136.023438 " fill-opacity="1" fill-rule="nonzero"/></g><path fill="#f06a72" d="M 107.011719 121.511719 C 106.953125 121.511719 106.953125 121.511719 107.011719 121.511719 C 106.953125 121.570312 107.011719 121.511719 107.011719 121.511719 Z M 107.011719 121.511719 " fill-opacity="1" fill-rule="nonzero"/><path fill="#f06a72" d="M 106.351562 121.871094 C 106.53125 121.753906 106.773438 121.632812 106.953125 121.511719 C 106.710938 121.570312 106.472656 121.570312 106.230469 121.632812 C 106.289062 121.753906 106.289062 121.8125 106.351562 121.871094 Z M 106.351562 121.871094 " fill-opacity="1" fill-rule="nonzero"/><g fill="#f06a72" fill-opacity="1"><g transform="translate(50.727608, 317.930503)"><g><path d="M 47.84375 -23.71875 C 45.640625 -26.445312 42.625 -28.183594 38.96875 -28.996094 C 39.375 -29.460938 39.722656 -29.921875 40.070312 -30.328125 C 43.785156 -35.316406 49.117188 -44.652344 43.320312 -51.613281 C 39.492188 -56.25 31.664062 -58.222656 23.777344 -57.0625 C 23.777344 -57.179688 23.835938 -57.238281 23.835938 -57.351562 C 23.949219 -57.933594 23.542969 -58.511719 22.90625 -58.628906 C 22.328125 -58.746094 21.746094 -58.339844 21.628906 -57.703125 C 21.574219 -57.351562 21.515625 -57.003906 21.457031 -56.65625 C 19.195312 -56.136719 16.992188 -55.382812 14.847656 -54.335938 C 5.335938 -49.699219 1.21875 -41.117188 3.480469 -30.734375 C 3.59375 -30.15625 4.234375 -29.75 4.8125 -29.921875 C 5.394531 -30.039062 5.800781 -30.621094 5.683594 -31.257812 C 3.59375 -40.476562 7.308594 -48.191406 15.832031 -52.367188 C 17.511719 -53.179688 19.195312 -53.757812 20.992188 -54.222656 C 19.832031 -48.304688 18.152344 -39.957031 16.238281 -30.5625 C 15.425781 -26.503906 14.671875 -22.734375 13.917969 -19.195312 C 13.164062 -17.976562 12.585938 -16.644531 12.234375 -15.25 C 11.945312 -14.148438 12.351562 -13.511719 12.699219 -13.164062 C 3.945312 30.621094 4.40625 32.765625 6.261719 33.34375 C 6.378906 33.402344 6.554688 33.402344 6.667969 33.402344 C 7.769531 33.402344 8.582031 31.953125 9.800781 28.996094 C 10.03125 28.414062 9.742188 27.777344 9.164062 27.546875 C 8.582031 27.3125 7.945312 27.546875 7.710938 28.125 C 7.65625 28.359375 7.539062 28.53125 7.480469 28.707031 C 8.117188 21.6875 11.539062 4.117188 14.902344 -12.699219 C 19.773438 -13.28125 30.621094 -20.238281 37.230469 -27.023438 C 40.941406 -26.558594 43.957031 -24.996094 46.101562 -22.328125 C 50.105469 -17.339844 50.453125 -9.277344 46.972656 -1.332031 C 41.636719 10.902344 29.460938 18.847656 14.324219 19.949219 C 13.6875 20.007812 13.222656 20.527344 13.28125 21.167969 C 13.339844 21.746094 13.800781 22.210938 14.382812 22.210938 C 14.441406 22.210938 14.441406 22.210938 14.496094 22.210938 C 30.445312 21.050781 43.378906 12.585938 49.058594 -0.464844 C 52.828125 -9.164062 52.367188 -18.09375 47.84375 -23.71875 Z M 15.367188 -15.019531 C 15.601562 -16.179688 15.832031 -17.28125 16.0625 -18.441406 C 19.019531 -23.082031 24.589844 -25.691406 29.515625 -26.675781 C 31.199219 -26.964844 32.765625 -27.140625 34.273438 -27.199219 C 27.660156 -20.875 18.789062 -15.949219 15.367188 -15.019531 Z M 36.359375 -29.34375 C 34.097656 -29.515625 31.664062 -29.34375 29.054688 -28.820312 C 24.183594 -27.894531 20.007812 -25.804688 16.933594 -22.90625 C 17.457031 -25.398438 17.976562 -27.835938 18.441406 -30.097656 C 20.472656 -40.015625 22.210938 -48.769531 23.371094 -54.742188 C 30.675781 -55.960938 38.15625 -54.335938 41.578125 -50.21875 C 45.175781 -45.871094 43.957031 -39.316406 38.273438 -31.664062 C 37.695312 -30.910156 37.054688 -30.097656 36.359375 -29.34375 Z M 36.359375 -29.34375 "/></g></g></g><g fill="#f06a72" fill-opacity="1"><g transform="translate(107.491108, 317.930503)"><g><path d="M 19.601562 -12.933594 C 19.078125 -13.28125 18.382812 -13.164062 18.035156 -12.640625 C 13.6875 -6.554688 10.148438 -2.726562 6.667969 -0.230469 C 4.929688 0.984375 3.246094 1.21875 2.144531 0.40625 C 1.449219 -0.117188 -0.695312 -2.4375 1.796875 -10.554688 C 7.421875 -15.195312 10.496094 -19.601562 9.683594 -21.921875 C 9.394531 -22.617188 8.699219 -23.082031 7.945312 -23.082031 C 5.625 -23.023438 2.085938 -19.019531 -0.230469 -11.539062 C -3.074219 -2.320312 -0.753906 1.042969 0.871094 2.203125 C 1.683594 2.839844 2.609375 3.132812 3.652344 3.132812 C 4.988281 3.132812 6.496094 2.609375 7.945312 1.566406 C 11.65625 -1.101562 15.308594 -5.046875 19.832031 -11.367188 C 20.179688 -11.886719 20.066406 -12.585938 19.601562 -12.933594 Z M 7.480469 -20.644531 C 7.25 -19.71875 6.261719 -17.859375 3.539062 -15.078125 C 5.046875 -18.441406 6.667969 -20.066406 7.480469 -20.644531 Z M 7.480469 -20.644531 "/></g></g></g><g fill="#f06a72" fill-opacity="1"><g transform="translate(124.363607, 317.930503)"><g><path d="M 24.242188 -12.875 C 23.71875 -13.105469 23.023438 -12.875 22.789062 -12.351562 C 18.382812 -3.363281 15.078125 -0.523438 13.511719 -0.8125 C 12.875 -0.929688 10.785156 -2.144531 10.265625 -12.292969 C 10.265625 -12.757812 9.917969 -13.164062 9.511719 -13.28125 C 9.046875 -13.394531 8.523438 -13.28125 8.292969 -12.875 C 7.945312 -12.46875 7.597656 -12.003906 7.25 -11.480469 C 5.800781 -9.511719 3.886719 -6.84375 1.566406 -4.347656 C 1.21875 -3.945312 0.929688 -3.710938 0.753906 -3.59375 C 0.347656 -5.625 2.492188 -13.394531 5.914062 -15.832031 C 6.902344 -16.527344 8.234375 -17.050781 10.03125 -14.960938 C 10.4375 -14.496094 11.132812 -14.441406 11.597656 -14.847656 C 12.0625 -15.195312 12.121094 -15.949219 11.773438 -16.410156 C 9.570312 -18.964844 7.480469 -18.90625 6.089844 -18.441406 C 1.625 -16.875 -1.390625 -8.292969 -1.507812 -4.347656 C -1.566406 -2.726562 -1.101562 -1.683594 -0.175781 -1.332031 C 1.277344 -0.753906 2.726562 -2.320312 3.191406 -2.839844 C 5.160156 -4.988281 6.957031 -7.308594 8.234375 -9.105469 C 8.871094 -2.492188 10.4375 0.8125 13.046875 1.390625 C 13.28125 1.390625 13.511719 1.449219 13.742188 1.449219 C 17.6875 1.449219 21.921875 -5.449219 24.761719 -11.367188 C 25.050781 -11.945312 24.820312 -12.585938 24.242188 -12.875 Z M 24.242188 -12.875 "/></g></g></g><g fill="#f06a72" fill-opacity="1"><g transform="translate(145.932578, 317.930503)"><g><path d="M 23.082031 -12.527344 C 22.558594 -12.816406 21.863281 -12.640625 21.574219 -12.121094 C 16.0625 -3.304688 11.425781 0.636719 10.4375 0.289062 C 10.4375 0.289062 9.277344 -0.347656 10.378906 -7.015625 C 10.785156 -9.277344 10.960938 -10.554688 9.859375 -11.019531 C 8.816406 -11.425781 8.175781 -10.554688 6.957031 -8.816406 C 5.972656 -7.421875 4.640625 -5.566406 3.191406 -4.292969 C 3.015625 -4.175781 2.378906 -3.59375 2.085938 -3.828125 C 1.21875 -4.523438 1.042969 -8.292969 3.074219 -11.773438 C 3.421875 -12.292969 3.191406 -12.988281 2.667969 -13.339844 C 2.144531 -13.628906 1.449219 -13.453125 1.160156 -12.933594 C -1.160156 -8.871094 -1.390625 -3.828125 0.636719 -2.144531 C 1.160156 -1.683594 2.609375 -0.871094 4.640625 -2.550781 C 5.972656 -3.710938 7.132812 -5.21875 8.0625 -6.496094 C 7.25 -1.101562 7.710938 1.625 9.625 2.378906 C 9.917969 2.492188 10.207031 2.492188 10.4375 2.492188 C 14.847656 2.492188 21.980469 -8.640625 23.429688 -10.960938 C 23.777344 -11.480469 23.601562 -12.179688 23.082031 -12.527344 Z M 23.082031 -12.527344 "/></g></g></g><g fill="#f06a72" fill-opacity="1"><g transform="translate(166.689817, 317.930503)"><g><path d="M 48.945312 -34.214844 C 48.191406 -35.257812 44.828125 -35.898438 8.816406 -35.085938 C 9.972656 -39.78125 11.019531 -44.015625 11.945312 -47.4375 C 12.121094 -48.074219 11.773438 -48.65625 11.191406 -48.828125 C 10.613281 -49.003906 9.972656 -48.65625 9.800781 -48.074219 C 8.816406 -44.421875 7.710938 -40.015625 6.496094 -35.027344 C 3.304688 -34.96875 -0.175781 -34.910156 -3.945312 -34.792969 C -9.105469 -34.679688 -13.164062 -34.5625 -14.730469 -34.5625 C -15.367188 -34.5625 -15.890625 -34.039062 -15.890625 -33.460938 C -15.890625 -32.824219 -15.367188 -32.300781 -14.730469 -32.300781 C -13.105469 -32.359375 -9.046875 -32.417969 -3.886719 -32.589844 C -1.160156 -32.648438 2.203125 -32.707031 5.972656 -32.824219 C 3.480469 -22.269531 0.636719 -9.625 -1.914062 2.726562 C -3.769531 11.773438 -5.277344 19.601562 -6.261719 25.34375 C -6.785156 28.359375 -7.132812 30.734375 -7.308594 32.359375 C -7.539062 34.5625 -7.65625 35.839844 -6.554688 36.246094 C -6.378906 36.246094 -6.261719 36.300781 -6.089844 36.300781 C -5.101562 36.300781 -4.582031 34.910156 -4.117188 33.636719 C -3.886719 33.054688 -4.175781 32.417969 -4.753906 32.183594 C -4.871094 32.183594 -4.929688 32.128906 -5.046875 32.128906 C -4.464844 27.605469 -2.726562 17.457031 0.636719 1.449219 C 3.132812 -10.671875 5.855469 -22.789062 8.292969 -32.882812 C 24.242188 -33.230469 44.941406 -33.519531 47.320312 -32.707031 C 47.726562 -32.359375 48.25 -32.359375 48.710938 -32.648438 C 49.175781 -32.996094 49.292969 -33.691406 48.945312 -34.214844 Z M 48.945312 -34.214844 "/></g></g></g><g fill="#f06a72" fill-opacity="1"><g transform="translate(174.401302, 317.930503)"><g><path d="M 28.359375 -12.757812 C 28.007812 -13.28125 27.3125 -13.394531 26.792969 -13.046875 C 21.804688 -9.800781 16.703125 -6.203125 11.832031 -1.683594 C 12.527344 -5.972656 13.222656 -10.554688 13.859375 -15.367188 C 13.976562 -15.890625 13.628906 -16.410156 13.105469 -16.585938 C 12.640625 -16.757812 12.0625 -16.527344 11.832031 -16.0625 C 10.671875 -14.09375 8.117188 -10.03125 5.855469 -7.308594 C 5.046875 -6.320312 4.234375 -5.800781 3.828125 -6.089844 C 2.839844 -6.667969 2.144531 -10.671875 4.40625 -16.179688 C 4.640625 -16.757812 4.347656 -17.398438 3.828125 -17.628906 C 3.246094 -17.859375 2.609375 -17.570312 2.378906 -16.992188 C 0 -11.191406 0.117188 -5.683594 2.726562 -4.175781 C 3.363281 -3.710938 5.21875 -3.074219 7.539062 -5.855469 C 8.757812 -7.308594 9.917969 -8.929688 10.960938 -10.496094 C 10.378906 -6.496094 9.800781 -2.667969 9.164062 0.984375 C 4.292969 5.972656 -0.289062 12.003906 -4.234375 19.660156 C -10.84375 32.359375 -12.0625 46.449219 -8.757812 50.511719 C -8.117188 51.320312 -7.308594 51.726562 -6.4375 51.726562 C -6.148438 51.726562 -5.914062 51.671875 -5.625 51.613281 C -1.855469 50.511719 1.507812 42.160156 3.710938 35.316406 C 6.4375 26.792969 8.929688 15.65625 11.25 2.03125 C 16.644531 -3.363281 22.382812 -7.539062 28.007812 -11.191406 C 28.53125 -11.539062 28.707031 -12.234375 28.359375 -12.757812 Z M 1.566406 34.621094 C -2.609375 47.84375 -5.625 49.292969 -6.203125 49.464844 C -6.4375 49.523438 -6.667969 49.523438 -7.015625 49.117188 C -9.105469 46.566406 -9.277344 34.214844 -2.261719 20.644531 C 0.984375 14.441406 4.582031 9.335938 8.464844 4.988281 C 6.378906 16.992188 4.058594 26.90625 1.566406 34.621094 Z M 1.566406 34.621094 "/></g></g></g><g fill="#f06a72" fill-opacity="1"><g transform="translate(200.086937, 317.930503)"><g/></g></g><g fill="#f06a72" fill-opacity="1"><g transform="translate(217.887139, 317.930503)"><g><path d="M 47.089844 -13.511719 C 46.507812 -13.742188 45.871094 -13.511719 45.640625 -12.933594 C 39.027344 1.101562 32.648438 11.425781 26.617188 17.746094 C 21.515625 23.082031 16.933594 25.285156 13.28125 24.183594 C 9.972656 23.136719 7.421875 19.253906 6.148438 13.222656 C 4.699219 6.726562 4.753906 -1.625 6.261719 -10.902344 C 8.410156 -24.125 14.613281 -42.855469 21.863281 -51.554688 C 24.007812 -54.105469 25.863281 -55.324219 26.964844 -54.742188 C 29.691406 -53.410156 30.792969 -42.332031 24.820312 -15.484375 C 24.644531 -14.902344 25.050781 -14.324219 25.632812 -14.148438 C 26.269531 -14.035156 26.851562 -14.441406 26.964844 -15.019531 C 30.851562 -32.359375 34.15625 -53.699219 27.953125 -56.773438 C 26.445312 -57.527344 23.890625 -57.46875 20.179688 -53.003906 C 15.542969 -47.4375 12.003906 -39.144531 9.859375 -33.113281 C 7.25 -25.980469 5.160156 -17.976562 4.058594 -11.25 C 0.8125 8.640625 4.292969 23.71875 12.640625 26.328125 C 13.453125 26.558594 14.324219 26.675781 15.195312 26.675781 C 24.355469 26.675781 36.011719 12.875 47.609375 -12.003906 C 47.902344 -12.585938 47.667969 -13.222656 47.089844 -13.511719 Z M 47.089844 -13.511719 "/></g></g></g><g fill="#f06a72" fill-opacity="1"><g transform="translate(262.648558, 317.930503)"><g><path d="M 24.242188 -12.875 C 23.71875 -13.105469 23.023438 -12.875 22.789062 -12.351562 C 18.382812 -3.363281 15.078125 -0.523438 13.511719 -0.8125 C 12.875 -0.929688 10.785156 -2.144531 10.265625 -12.292969 C 10.265625 -12.757812 9.917969 -13.164062 9.511719 -13.28125 C 9.046875 -13.394531 8.523438 -13.28125 8.292969 -12.875 C 7.945312 -12.46875 7.597656 -12.003906 7.25 -11.480469 C 5.800781 -9.511719 3.886719 -6.84375 1.566406 -4.347656 C 1.21875 -3.945312 0.929688 -3.710938 0.753906 -3.59375 C 0.347656 -5.625 2.492188 -13.394531 5.914062 -15.832031 C 6.902344 -16.527344 8.234375 -17.050781 10.03125 -14.960938 C 10.4375 -14.496094 11.132812 -14.441406 11.597656 -14.847656 C 12.0625 -15.195312 12.121094 -15.949219 11.773438 -16.410156 C 9.570312 -18.964844 7.480469 -18.90625 6.089844 -18.441406 C 1.625 -16.875 -1.390625 -8.292969 -1.507812 -4.347656 C -1.566406 -2.726562 -1.101562 -1.683594 -0.175781 -1.332031 C 1.277344 -0.753906 2.726562 -2.320312 3.191406 -2.839844 C 5.160156 -4.988281 6.957031 -7.308594 8.234375 -9.105469 C 8.871094 -2.492188 10.4375 0.8125 13.046875 1.390625 C 13.28125 1.390625 13.511719 1.449219 13.742188 1.449219 C 17.6875 1.449219 21.921875 -5.449219 24.761719 -11.367188 C 25.050781 -11.945312 24.820312 -12.585938 24.242188 -12.875 Z M 24.242188 -12.875 "/></g></g></g><g fill="#f06a72" fill-opacity="1"><g transform="translate(284.217529, 317.930503)"><g><path d="M 25.457031 -13.105469 C 24.878906 -13.394531 24.183594 -13.164062 23.949219 -12.585938 C 17.28125 1.449219 10.960938 8.640625 9.570312 8.410156 C 9.453125 8.351562 7.421875 6.378906 13.976562 -13.742188 C 14.148438 -14.265625 14.554688 -15.484375 13.628906 -16.121094 C 12.757812 -16.816406 11.773438 -16.179688 10.148438 -15.078125 C 8.410156 -13.976562 6.03125 -12.410156 4.175781 -12.640625 C 10.089844 -22.847656 9.511719 -25.109375 8.175781 -25.980469 C 6.089844 -27.199219 3.074219 -23.660156 1.683594 -21.628906 C -1.160156 -17.222656 -1.101562 -13.222656 1.914062 -11.191406 C 4.988281 -9.046875 8.988281 -11.65625 11.367188 -13.222656 C 11.425781 -13.28125 11.425781 -13.28125 11.480469 -13.339844 C 9.21875 -6.203125 7.769531 -0.578125 7.25 3.304688 C 6.609375 7.597656 7.074219 9.859375 8.699219 10.496094 C 8.988281 10.554688 9.21875 10.613281 9.511719 10.613281 C 14.148438 10.613281 22.210938 -3.652344 25.980469 -11.597656 C 26.210938 -12.179688 25.980469 -12.875 25.457031 -13.105469 Z M 2.03125 -17.105469 C 2.839844 -20.238281 5.566406 -23.136719 6.785156 -23.835938 C 6.667969 -22.90625 6.03125 -20.296875 2.320312 -13.859375 C 1.914062 -14.496094 1.625 -15.484375 2.03125 -17.105469 Z M 2.03125 -17.105469 "/></g></g></g><g fill="#f06a72" fill-opacity="1"><g transform="translate(307.352001, 317.930503)"><g><path d="M 19.601562 -12.933594 C 19.078125 -13.28125 18.382812 -13.164062 18.035156 -12.640625 C 13.6875 -6.554688 10.148438 -2.726562 6.667969 -0.230469 C 4.929688 0.984375 3.246094 1.21875 2.144531 0.40625 C 1.449219 -0.117188 -0.695312 -2.4375 1.796875 -10.554688 C 7.421875 -15.195312 10.496094 -19.601562 9.683594 -21.921875 C 9.394531 -22.617188 8.699219 -23.082031 7.945312 -23.082031 C 5.625 -23.023438 2.085938 -19.019531 -0.230469 -11.539062 C -3.074219 -2.320312 -0.753906 1.042969 0.871094 2.203125 C 1.683594 2.839844 2.609375 3.132812 3.652344 3.132812 C 4.988281 3.132812 6.496094 2.609375 7.945312 1.566406 C 11.65625 -1.101562 15.308594 -5.046875 19.832031 -11.367188 C 20.179688 -11.886719 20.066406 -12.585938 19.601562 -12.933594 Z M 7.480469 -20.644531 C 7.25 -19.71875 6.261719 -17.859375 3.539062 -15.078125 C 5.046875 -18.441406 6.667969 -20.066406 7.480469 -20.644531 Z M 7.480469 -20.644531 "/></g></g></g></svg>